<svg width="60" height="60" viewBox="0 0 60 60" fill="none" xmlns="http://www.w3.org/2000/svg">
<rect x="60" y="60" width="60" height="60" rx="30" transform="rotate(-180 60 60)" fill="black" fill-opacity="0.2"/>
<path d="M23.7345 30L36.6678 43.5191C36.7743 43.628 36.8585 43.7573 36.9155 43.8996C36.9725 44.0419 37.0012 44.1942 37 44.3478C36.9987 44.5014 36.9675 44.6533 36.9082 44.7946C36.8489 44.9358 36.7626 45.0637 36.6543 45.1709C36.5461 45.278 36.418 45.3622 36.2776 45.4187C36.1371 45.4751 35.987 45.5027 35.836 45.4998C35.685 45.4969 35.5361 45.4635 35.3978 45.4017C35.2596 45.3398 35.1347 45.2507 35.0306 45.1394L21.3235 30.8102C21.1161 30.5933 21 30.3026 21 30C21 29.6974 21.1161 29.4067 21.3235 29.1898L35.0306 14.8606C35.1347 14.7493 35.2596 14.6602 35.3978 14.5983C35.5361 14.5365 35.685 14.5031 35.836 14.5002C35.987 14.4973 36.1371 14.5249 36.2776 14.5813C36.418 14.6378 36.5461 14.722 36.6543 14.8291C36.7626 14.9363 36.8489 15.0642 36.9082 15.2054C36.9675 15.3467 36.9987 15.4986 37 15.6522C37.0012 15.8058 36.9725 15.9581 36.9155 16.1004C36.8585 16.2427 36.7743 16.372 36.6678 16.4809L23.7345 30Z" fill="white"/>
</svg>
