<svg width="60" height="60" viewBox="0 0 60 60" fill="none" xmlns="http://www.w3.org/2000/svg">
<rect width="60" height="60" rx="30" transform="matrix(1 0 0 -1 0 60)" fill="black" fill-opacity="0.2"/>
<path d="M36.2655 30L23.3322 43.5191C23.2257 43.628 23.1415 43.7573 23.0845 43.8996C23.0275 44.0419 22.9988 44.1942 23 44.3478C23.0013 44.5014 23.0325 44.6533 23.0918 44.7946C23.1511 44.9358 23.2374 45.0637 23.3457 45.1709C23.4539 45.278 23.582 45.3622 23.7224 45.4187C23.8629 45.4751 24.013 45.5027 24.164 45.4998C24.315 45.4969 24.4639 45.4635 24.6022 45.4017C24.7404 45.3398 24.8653 45.2507 24.9694 45.1394L38.6765 30.8102C38.8839 30.5933 39 30.3026 39 30C39 29.6974 38.8839 29.4067 38.6765 29.1898L24.9694 14.8606C24.8653 14.7493 24.7404 14.6602 24.6022 14.5983C24.4639 14.5365 24.315 14.5031 24.164 14.5002C24.013 14.4973 23.8629 14.5249 23.7224 14.5813C23.582 14.6378 23.4539 14.722 23.3457 14.8291C23.2374 14.9363 23.1511 15.0642 23.0918 15.2054C23.0325 15.3467 23.0013 15.4986 23 15.6522C22.9988 15.8058 23.0275 15.9581 23.0845 16.1004C23.1415 16.2427 23.2257 16.372 23.3322 16.4809L36.2655 30Z" fill="white"/>
</svg>
