<svg width="33" height="32" viewBox="0 0 33 32" fill="none" xmlns="http://www.w3.org/2000/svg">
<path d="M16.4998 2.66699C14.7489 2.66699 13.0151 3.01187 11.3974 3.68193C9.77972 4.35199 8.30986 5.33412 7.07175 6.57224C4.57126 9.07272 3.1665 12.4641 3.1665 16.0003C3.1665 21.8937 6.99317 26.8937 12.2865 28.667C12.9532 28.7737 13.1665 28.3603 13.1665 28.0003V25.747C9.47317 26.547 8.6865 23.9603 8.6865 23.9603C8.07317 22.4137 7.2065 22.0003 7.2065 22.0003C5.99317 21.1737 7.29984 21.2003 7.29984 21.2003C8.63317 21.2937 9.33984 22.5737 9.33984 22.5737C10.4998 24.6003 12.4598 24.0003 13.2198 23.6803C13.3398 22.8137 13.6865 22.227 14.0598 21.8937C11.0998 21.5603 7.99317 20.4137 7.99317 15.3337C7.99317 13.8537 8.49984 12.667 9.3665 11.7203C9.23317 11.387 8.7665 10.0003 9.49984 8.20033C9.49984 8.20033 10.6198 7.84033 13.1665 9.56033C14.2198 9.26699 15.3665 9.12033 16.4998 9.12033C17.6332 9.12033 18.7798 9.26699 19.8332 9.56033C22.3798 7.84033 23.4998 8.20033 23.4998 8.20033C24.2332 10.0003 23.7665 11.387 23.6332 11.7203C24.4998 12.667 25.0065 13.8537 25.0065 15.3337C25.0065 20.427 21.8865 21.547 18.9132 21.8803C19.3932 22.2937 19.8332 23.107 19.8332 24.347V28.0003C19.8332 28.3603 20.0465 28.787 20.7265 28.667C26.0198 26.8803 29.8332 21.8937 29.8332 16.0003C29.8332 14.2494 29.4883 12.5156 28.8182 10.8979C28.1482 9.2802 27.166 7.81035 25.9279 6.57224C24.6898 5.33412 23.22 4.35199 21.6023 3.68193C19.9846 3.01187 18.2508 2.66699 16.4998 2.66699Z" fill="white"/>
</svg>
