<svg xmlns="http://www.w3.org/2000/svg" viewBox="0 0 32 32" fill="currentColor">
    <path fill="currentColor" d="M16 2.667A13.333 13.333 0 0 0 2.667 16c0 5.893 3.826 10.893 9.12 12.666.666.107.88-.306.88-.666v-2.253c-3.694.8-4.48-1.787-4.48-1.787-.614-1.547-1.48-1.96-1.48-1.96-1.214-.827.093-.8.093-.8 1.333.093 2.04 1.373 2.04 1.373C10 24.6 11.96 24 12.72 23.68c.12-.867.467-1.453.84-1.787-2.96-.333-6.067-1.48-6.067-6.56 0-1.48.507-2.667 1.374-3.613-.134-.334-.6-1.72.133-3.52 0 0 1.12-.36 3.667 1.36 1.053-.293 2.2-.44 3.333-.44s2.28.147 3.333.44C21.88 7.84 23 8.2 23 8.2c.733 1.8.267 3.187.133 3.52.867.946 1.374 2.133 1.374 3.613 0 5.094-3.12 6.214-6.094 6.547.48.413.92 1.227.92 2.466V28c0 .36.214.787.894.666C25.52 26.88 29.333 21.893 29.333 16A13.333 13.333 0 0 0 16 2.666Z"/>
</svg>