<svg width="33" height="32" viewBox="0 0 33 32" fill="none" xmlns="http://www.w3.org/2000/svg">
<g clip-path="url(#clip0_4239_410)">
<path d="M16.5 0C7.66533 0 0.5 7.16533 0.5 16C0.5 24.8347 7.66533 32 16.5 32C25.3347 32 32.5 24.8347 32.5 16C32.5 7.16533 25.3387 0 16.5 0ZM8.39333 16.5373L8.46133 16.4293L12.6253 9.91733C12.6393 9.89593 12.6587 9.87866 12.6816 9.86733C12.7045 9.85601 12.73 9.85104 12.7555 9.85294C12.781 9.85485 12.8055 9.86357 12.8265 9.87818C12.8474 9.89279 12.8641 9.91276 12.8747 9.936C13.568 11.4947 14.1707 13.4333 13.888 14.64C13.7707 15.136 13.4413 15.808 13.0693 16.4293C13.0216 16.5202 12.9696 16.6088 12.9133 16.6947C12.8999 16.7138 12.8819 16.7293 12.8609 16.7398C12.84 16.7503 12.8167 16.7554 12.7933 16.7547H8.51733C8.49181 16.7551 8.46666 16.7485 8.44455 16.7358C8.42243 16.723 8.40419 16.7045 8.39174 16.6822C8.3793 16.66 8.37313 16.6347 8.37388 16.6092C8.37463 16.5837 8.38227 16.5589 8.396 16.5373H8.39333ZM26.9453 18.7773C26.9457 18.8058 26.9376 18.8337 26.9222 18.8577C26.9068 18.8816 26.8847 18.9005 26.8587 18.912C26.5347 19.0493 25.432 19.5587 24.9733 20.1947C23.8027 21.824 22.9093 24.1547 20.9093 24.1547H12.5707C11.8666 24.1536 11.1697 24.0138 10.5197 23.7433C9.86967 23.4728 9.27935 23.0768 8.78244 22.5781C8.28553 22.0793 7.89178 21.4875 7.62369 20.8365C7.3556 20.1855 7.21842 19.488 7.22 18.784V18.688C7.22 18.6107 7.284 18.5467 7.364 18.5467H12.0107C12.104 18.5467 12.1707 18.6307 12.164 18.7227C12.1293 19.024 12.1867 19.3347 12.3307 19.616C12.6053 20.176 13.1787 20.5253 13.796 20.5253H16.0973V18.7293H13.82C13.7933 18.729 13.7672 18.7215 13.7445 18.7075C13.7218 18.6935 13.7033 18.6735 13.6911 18.6498C13.6789 18.626 13.6734 18.5994 13.6752 18.5728C13.677 18.5462 13.686 18.5205 13.7013 18.4987L13.7853 18.3787C13.9987 18.0707 14.3067 17.5973 14.6133 17.056C14.8213 16.6907 15.024 16.3013 15.1867 15.9093C15.2187 15.84 15.244 15.7667 15.2733 15.696C15.3173 15.5707 15.3627 15.4533 15.3947 15.3373C15.4261 15.239 15.455 15.1398 15.4813 15.04C15.5573 14.7067 15.5893 14.3547 15.5893 13.9907C15.5893 13.8467 15.584 13.696 15.5707 13.5547C15.564 13.3987 15.544 13.2413 15.5253 13.0853C15.5104 12.9458 15.4891 12.8069 15.4613 12.6693C15.4255 12.4598 15.3819 12.2517 15.3307 12.0453L15.312 11.9653C15.272 11.8213 15.2373 11.6853 15.192 11.5427C15.065 11.1045 14.9191 10.6721 14.7547 10.2467C14.6974 10.0866 14.6342 9.92874 14.5653 9.77333C14.4693 9.536 14.3707 9.32133 14.2813 9.12C14.2369 9.03374 14.1951 8.94615 14.156 8.85733C14.1126 8.76152 14.0668 8.66682 14.0187 8.57333C13.9867 8.50267 13.948 8.43467 13.9227 8.37067L13.6413 7.85333C13.6027 7.78267 13.6667 7.696 13.744 7.71867L15.504 8.19467H15.5173L15.748 8.26133L16.004 8.33333L16.0973 8.35867V7.31467C16.0973 6.80933 16.5 6.4 17.0027 6.4C17.1214 6.39968 17.2389 6.42338 17.3482 6.46966C17.4575 6.51595 17.5563 6.58387 17.6387 6.66933C17.8089 6.84104 17.9047 7.07287 17.9053 7.31467V8.86667L18.0933 8.91867C18.1067 8.92533 18.1227 8.932 18.1347 8.94133C18.18 8.97333 18.2467 9.024 18.3307 9.088C18.3973 9.13867 18.468 9.20267 18.5507 9.27067C18.814 9.48517 19.0692 9.70933 19.316 9.94267C19.6013 10.208 19.9213 10.5187 20.228 10.864C20.3147 10.9627 20.3973 11.0587 20.484 11.1653C20.5667 11.2707 20.66 11.3733 20.7373 11.4747C20.8427 11.6133 20.9507 11.7573 21.0507 11.9067C21.0947 11.9773 21.1493 12.0507 21.1907 12.1213C21.3187 12.3107 21.428 12.5053 21.5333 12.7013C21.5787 12.7907 21.6227 12.8893 21.6613 12.9853C21.78 13.248 21.8733 13.5133 21.9307 13.7827C21.9496 13.8398 21.9626 13.8988 21.9693 13.9587V13.972C21.988 14.048 21.9947 14.132 22.0013 14.2173C22.0389 14.6114 21.9907 15.009 21.86 15.3827C21.8187 15.4947 21.78 15.6093 21.7293 15.7213C21.6293 15.948 21.5147 16.1787 21.3773 16.3907C21.332 16.4707 21.2773 16.5533 21.2267 16.6333C21.1693 16.7173 21.108 16.7973 21.0573 16.8733C20.984 16.9743 20.9071 17.0726 20.8267 17.168C20.756 17.264 20.6853 17.36 20.6053 17.4467C20.4973 17.5773 20.392 17.7 20.2787 17.8173C20.2147 17.8947 20.1453 17.9747 20.0707 18.044C20.0013 18.124 19.9267 18.1947 19.8627 18.2587C19.7507 18.3707 19.6627 18.4547 19.5853 18.528L19.4027 18.6907C19.3772 18.7162 19.3427 18.7306 19.3067 18.7307H17.9053V20.5253H19.668C20.0613 20.5253 20.436 20.3867 20.74 20.128C20.8427 20.0387 21.2933 19.648 21.828 19.0587C21.8454 19.0386 21.8688 19.0246 21.8947 19.0187L26.7613 17.6093C26.7827 17.6032 26.8052 17.602 26.8271 17.606C26.849 17.61 26.8696 17.619 26.8875 17.6323C26.9053 17.6456 26.9198 17.6628 26.9298 17.6827C26.9399 17.7025 26.9452 17.7244 26.9453 17.7467V18.7773Z" fill="white"/>
</g>
<defs>
<clipPath id="clip0_4239_410">
<rect width="32" height="32" fill="white" transform="translate(0.5)"/>
</clipPath>
</defs>
</svg>
