<svg width="243" height="82" viewBox="0 0 243 82" fill="none" xmlns="http://www.w3.org/2000/svg">
<g clip-path="url(#clip0_5174_5635)">
<path d="M84.1731 41.8793V41.3753C84.1731 40.109 83.7475 39.1397 82.8963 38.4676C82.0707 37.77 80.9873 37.421 79.6459 37.421C78.6141 37.421 77.8016 37.6019 77.2083 37.9637C76.6409 38.2998 76.0992 38.8167 75.5832 39.5145C75.4284 39.7213 75.2607 39.8634 75.0802 39.9409C74.8997 40.0185 74.6546 40.0572 74.345 40.0572H73.1842C72.9005 40.0572 72.6425 39.9538 72.4103 39.7471C72.204 39.5403 72.1137 39.2949 72.1394 39.0105C72.2169 38.2351 72.5909 37.4727 73.2616 36.7232C73.9581 35.9478 74.8738 35.3146 76.0088 34.8235C77.1438 34.3324 78.3561 34.0869 79.6459 34.0869C82.045 34.0869 83.9797 34.7589 85.45 36.1029C86.9461 37.4468 87.6942 39.3336 87.6942 41.7631V53.5873C87.6942 53.8717 87.591 54.1171 87.3848 54.3239C87.1784 54.5307 86.9332 54.634 86.6495 54.634H85.2178C84.9341 54.634 84.6891 54.5307 84.4827 54.3239C84.2763 54.1171 84.1731 53.8717 84.1731 53.5873V51.9978C83.7605 52.9282 82.8833 53.6649 81.5419 54.2076C80.2007 54.7503 78.8593 55.0218 77.5179 55.0218C76.2024 55.0218 75.0286 54.7892 73.9968 54.3239C72.965 53.8328 72.1653 53.1738 71.5977 52.3468C71.056 51.5198 70.7852 50.5893 70.7852 49.5554C70.7852 47.617 71.5075 46.105 72.952 45.0196C74.3966 43.9082 76.3184 43.1588 78.7173 42.7711L84.1731 41.8793ZM84.1731 44.9807L79.6074 45.7174C77.9307 45.9758 76.6278 46.4022 75.6992 46.9967C74.7706 47.5654 74.3064 48.289 74.3064 49.1678C74.3064 49.8139 74.603 50.3955 75.1963 50.9124C75.7896 51.4293 76.6925 51.6876 77.9048 51.6876C79.7622 51.6876 81.271 51.1578 82.4319 50.0982C83.5927 49.0385 84.1731 47.6558 84.1731 45.95V44.9807Z" fill="white"/>
<path d="M96.8648 53.5871C96.8648 53.8715 96.7616 54.1169 96.5552 54.3237C96.3488 54.5304 96.1039 54.6338 95.82 54.6338H94.3884C94.1047 54.6338 93.8596 54.5304 93.6532 54.3237C93.4468 54.1169 93.3438 53.8715 93.3438 53.5871V28.1551C93.3438 27.8708 93.4468 27.6253 93.6532 27.4185C93.8596 27.2118 94.1047 27.1084 94.3884 27.1084H95.82C96.1039 27.1084 96.3488 27.2118 96.5552 27.4185C96.7616 27.6253 96.8648 27.8708 96.8648 28.1551V53.5871Z" fill="white"/>
<path d="M110.8 51.6876C113.38 51.6876 115.121 50.6796 116.024 48.6638C116.204 48.2761 116.385 48.0047 116.565 47.8497C116.746 47.6946 116.991 47.617 117.3 47.617H118.461C118.745 47.617 118.99 47.7204 119.196 47.9271C119.403 48.1081 119.506 48.3277 119.506 48.5863C119.506 49.4649 119.158 50.4084 118.461 51.4164C117.765 52.4244 116.759 53.2772 115.443 53.9751C114.127 54.6729 112.58 55.0218 110.8 55.0218C108.968 55.0218 107.382 54.634 106.041 53.8588C104.699 53.0833 103.667 52.0238 102.945 50.6796C102.223 49.3099 101.823 47.785 101.746 46.105C101.72 45.7948 101.707 45.2006 101.707 44.3217C101.707 43.7015 101.72 43.2621 101.746 43.0036C101.978 40.3674 102.868 38.2222 104.416 36.5681C105.963 34.914 108.091 34.0869 110.8 34.0869C112.58 34.0869 114.115 34.4358 115.404 35.1336C116.72 35.8056 117.713 36.6456 118.384 37.6535C119.08 38.6357 119.454 39.5661 119.506 40.4449C119.532 40.7293 119.429 40.9747 119.196 41.1815C118.99 41.3882 118.745 41.4916 118.461 41.4916H117.3C116.991 41.4916 116.746 41.414 116.565 41.2591C116.385 41.1039 116.204 40.8326 116.024 40.4449C115.121 38.4289 113.38 37.421 110.8 37.421C109.381 37.421 108.143 37.8992 107.085 38.8554C106.028 39.8118 105.421 41.2591 105.267 43.1975C105.241 43.4818 105.228 43.9469 105.228 44.5932C105.228 45.1875 105.241 45.627 105.267 45.9113C105.447 47.8497 106.054 49.297 107.085 50.2532C108.143 51.2096 109.381 51.6876 110.8 51.6876Z" fill="white"/>
<path d="M142.009 53.5871C142.009 53.8715 141.906 54.1169 141.7 54.3237C141.493 54.5304 141.248 54.6338 140.965 54.6338H139.533C139.249 54.6338 139.004 54.5304 138.798 54.3237C138.591 54.1169 138.488 53.8715 138.488 53.5871V43.3522C138.488 41.4138 138.011 39.9407 137.056 38.9327C136.102 37.9247 134.773 37.4207 133.071 37.4207C131.394 37.4207 130.066 37.9247 129.086 38.9327C128.131 39.9407 127.654 41.4138 127.654 43.3522V53.5871C127.654 53.8715 127.551 54.1169 127.344 54.3237C127.138 54.5304 126.893 54.6338 126.609 54.6338H125.178C124.894 54.6338 124.649 54.5304 124.442 54.3237C124.236 54.1169 124.133 53.8715 124.133 53.5871V28.1551C124.133 27.8708 124.236 27.6253 124.442 27.4185C124.649 27.2118 124.894 27.1084 125.178 27.1084H126.609C126.893 27.1084 127.138 27.2118 127.344 27.4185C127.551 27.6253 127.654 27.8708 127.654 28.1551V36.7229C128.221 35.9734 128.995 35.3531 129.975 34.8621C130.982 34.3451 132.207 34.0867 133.651 34.0867C135.276 34.0867 136.721 34.4356 137.985 35.1334C139.249 35.8313 140.229 36.8392 140.926 38.1573C141.648 39.4496 142.009 40.9874 142.009 42.7708V53.5871Z" fill="white"/>
<path d="M155.575 34.0869C158.335 34.0869 160.515 34.9657 162.114 36.7232C163.713 38.4807 164.513 40.8713 164.513 43.8953V44.942C164.513 45.2263 164.41 45.4718 164.203 45.6786C163.997 45.8853 163.752 45.9887 163.468 45.9887H150.158V46.2214C150.209 47.9271 150.725 49.2712 151.706 50.2532C152.712 51.2096 154.001 51.6876 155.575 51.6876C156.865 51.6876 157.858 51.5198 158.554 51.1836C159.277 50.8477 159.921 50.3695 160.489 49.7492C160.695 49.5425 160.876 49.4004 161.031 49.3228C161.211 49.2452 161.443 49.2065 161.727 49.2065H162.888C163.198 49.2065 163.455 49.3099 163.662 49.5167C163.868 49.7234 163.959 49.9689 163.933 50.2532C163.829 50.9511 163.443 51.6747 162.772 52.4244C162.127 53.148 161.185 53.7683 159.947 54.2852C158.735 54.7763 157.277 55.0218 155.575 55.0218C153.924 55.0218 152.454 54.6469 151.164 53.8975C149.874 53.122 148.842 52.0625 148.068 50.7185C147.32 49.3746 146.869 47.8626 146.714 46.1826C146.662 45.4073 146.637 44.8128 146.637 44.3993C146.637 43.9858 146.662 43.3913 146.714 42.6159C146.869 41.0134 147.32 39.5661 148.068 38.2738C148.842 36.9816 149.861 35.9607 151.125 35.2112C152.415 34.4617 153.898 34.0869 155.575 34.0869ZM161.031 42.7322V42.6159C161.031 41.0394 160.528 39.7858 159.522 38.8554C158.541 37.8992 157.226 37.421 155.575 37.421C154.079 37.421 152.802 37.8992 151.744 38.8554C150.712 39.8118 150.184 41.0652 150.158 42.6159V42.7322H161.031Z" fill="white"/>
<path d="M172.701 36.7232C173.32 35.9219 174.016 35.2887 174.79 34.8235C175.564 34.3324 176.596 34.0869 177.886 34.0869C180.904 34.0869 183.019 35.2112 184.231 37.4597C184.98 36.3742 185.831 35.5472 186.785 34.9786C187.74 34.3841 188.991 34.0869 190.539 34.0869C193.067 34.0869 194.937 34.8493 196.149 36.3742C197.387 37.8992 198.006 40.0572 198.006 42.8484V53.5873C198.006 53.8717 197.903 54.1171 197.697 54.3239C197.49 54.5307 197.245 54.634 196.962 54.634H195.53C195.246 54.634 195.001 54.5307 194.795 54.3239C194.588 54.1171 194.485 53.8717 194.485 53.5873V43.2362C194.485 39.3594 192.963 37.421 189.919 37.421C188.527 37.421 187.417 37.8863 186.592 38.8167C185.766 39.7471 185.354 41.1299 185.354 42.9649V53.5873C185.354 53.8717 185.25 54.1171 185.044 54.3239C184.838 54.5307 184.593 54.634 184.309 54.634H182.877C182.594 54.634 182.348 54.5307 182.142 54.3239C181.936 54.1171 181.833 53.8717 181.833 53.5873V43.2362C181.833 39.3594 180.311 37.421 177.267 37.421C175.874 37.421 174.765 37.8863 173.939 38.8167C173.114 39.7471 172.701 41.1299 172.701 42.9649V53.5873C172.701 53.8717 172.598 54.1171 172.391 54.3239C172.185 54.5307 171.94 54.634 171.656 54.634H170.225C169.941 54.634 169.696 54.5307 169.489 54.3239C169.283 54.1171 169.18 53.8717 169.18 53.5873V35.5213C169.18 35.237 169.283 34.9915 169.489 34.7847C169.696 34.578 169.941 34.4746 170.225 34.4746H171.656C171.94 34.4746 172.185 34.578 172.391 34.7847C172.598 34.9915 172.701 35.237 172.701 35.5213V36.7232Z" fill="white"/>
<path d="M208.843 61.0697C208.61 61.69 208.237 62.0001 207.721 62.0001H206.134C205.875 62.0001 205.657 61.9096 205.476 61.7287C205.296 61.5477 205.204 61.3281 205.204 61.0697C205.204 60.9662 205.218 60.8759 205.243 60.7983L208.959 52.6956L201.297 35.6764C201.272 35.5989 201.258 35.5084 201.258 35.405C201.258 35.1466 201.349 34.9269 201.529 34.746C201.71 34.5651 201.929 34.4746 202.188 34.4746H203.774C204.289 34.4746 204.664 34.7847 204.896 35.405L210.854 48.5863L216.891 35.405C217.123 34.7847 217.497 34.4746 218.013 34.4746H219.599C219.856 34.4746 220.077 34.5651 220.256 34.746C220.438 34.9269 220.527 35.1466 220.527 35.405C220.527 35.5084 220.515 35.5989 220.489 35.6764L208.843 61.0697Z" fill="white"/>
<path d="M56.1572 41.8088L43.1648 19.3673C43.1019 19.2565 43.0107 19.1642 42.9006 19.0997C42.7906 19.0352 42.6653 19.0008 42.5377 19C42.41 18.9992 42.2844 19.032 42.1735 19.0951C42.0625 19.1581 41.9703 19.2493 41.906 19.3593L38.0148 26.0837C37.8874 26.3038 37.8203 26.5535 37.8203 26.8077C37.8203 27.0619 37.8874 27.3116 38.0148 27.5317L46.4868 42.1718C46.6144 42.3922 46.7979 42.5751 47.0189 42.7021C47.2399 42.8293 47.4905 42.896 47.7457 42.8958H55.528C55.6553 42.8955 55.7803 42.8618 55.8906 42.798C56.0008 42.7344 56.0924 42.6428 56.1561 42.5328C56.2199 42.4228 56.2533 42.2981 56.2537 42.1709C56.2539 42.0439 56.2206 41.919 56.1572 41.8088Z" fill="white"/>
<path d="M22.1002 53.5374L35.0927 31.0959C35.1564 30.986 35.2481 30.8947 35.3584 30.8312C35.4687 30.7678 35.5937 30.7344 35.7211 30.7344C35.8484 30.7344 35.9736 30.7678 36.0838 30.8312C36.1941 30.8947 36.2858 30.986 36.3495 31.0959L40.2427 37.8143C40.37 38.0348 40.4371 38.2848 40.4371 38.5394C40.4371 38.7938 40.37 39.0437 40.2427 39.2643L31.7707 53.9044C31.6436 54.1247 31.4605 54.3077 31.2398 54.4349C31.0191 54.5619 30.7687 54.6287 30.5138 54.6284H22.7296C22.6014 54.6291 22.4753 54.5958 22.3641 54.532C22.2529 54.4684 22.1607 54.3763 22.0967 54.2656C22.0328 54.1546 21.9994 54.0289 22 53.9009C22.0006 53.773 22.0352 53.6476 22.1002 53.5374Z" fill="white"/>
<path d="M36.3463 54.6242H62.3312C62.4587 54.6242 62.5839 54.5905 62.6944 54.5269C62.8046 54.4631 62.8962 54.3715 62.9598 54.2614C63.0233 54.1514 63.0568 54.0263 63.0566 53.8993C63.0564 53.7721 63.0226 53.6472 62.9587 53.5372L59.0717 46.8148C58.944 46.5945 58.7605 46.4115 58.5397 46.2845C58.3186 46.1573 58.0679 46.0906 57.8129 46.0908H40.8688C40.6138 46.0906 40.363 46.1573 40.1422 46.2845C39.9212 46.4115 39.7375 46.5945 39.61 46.8148L35.7189 53.5372C35.655 53.6472 35.6213 53.7721 35.6211 53.8993C35.6209 54.0263 35.6543 54.1514 35.7179 54.2614C35.7815 54.3715 35.873 54.4631 35.9834 54.5269C36.0937 54.5905 36.2189 54.6242 36.3463 54.6242Z" fill="white"/>
</g>
<defs>
<clipPath id="clip0_5174_5635">
<rect width="199" height="43" fill="white" transform="translate(22 19)"/>
</clipPath>
</defs>
</svg>
