<svg width="270" height="82" viewBox="0 0 270 82" fill="none" xmlns="http://www.w3.org/2000/svg">
<g clip-path="url(#clip0_5174_5477)">
<path d="M219.319 40.6183C218.175 39.8349 216.917 39.2792 215.72 38.5869C214.945 38.1314 214.127 37.7397 213.449 37.1658C212.305 36.1911 212.543 34.2873 213.74 33.4583C215.456 32.2741 218.289 32.9391 218.597 35.3531C218.597 35.4077 218.65 35.4442 218.694 35.4442H221.281C221.352 35.4442 221.396 35.3895 221.387 35.3257C221.255 33.6587 220.63 32.2741 219.486 31.3905C218.395 30.5434 217.154 30.0879 215.825 30.0879C208.988 30.0879 208.372 37.5666 212.05 39.9168C212.473 40.1901 216.081 42.0666 217.357 42.8865C218.633 43.7063 219.037 45.1911 218.483 46.3753C217.981 47.4502 216.67 48.1972 215.359 48.1061C213.933 48.015 212.825 47.2225 212.437 45.9745C212.367 45.7468 212.341 45.3187 212.341 45.1274C212.341 45.0727 212.288 45.0272 212.244 45.0272H209.437C209.384 45.0272 209.34 45.0818 209.34 45.1274C209.34 47.2225 209.841 48.3885 211.223 49.4452C212.517 50.4472 213.925 50.8662 215.385 50.8662C219.213 50.8662 221.193 48.6253 221.598 46.3025C221.941 44.016 221.29 41.9755 219.319 40.6183Z" fill="white"/>
<path d="M97.5305 30.4613H96.2809H94.9169C94.8641 30.4613 94.8289 30.4977 94.8113 30.5341L92.5145 38.3773C92.4793 38.4775 92.3473 38.4775 92.3121 38.3773L90.0065 30.5341C89.9889 30.4795 89.9537 30.4613 89.9097 30.4613H88.5457H87.3049H85.6329C85.5801 30.4613 85.5273 30.5159 85.5273 30.5706V50.5837C85.5273 50.6384 85.5801 50.6839 85.6329 50.6839H88.4401C88.4929 50.6839 88.5457 50.6293 88.5457 50.5837V35.3712C88.5457 35.2528 88.7129 35.2345 88.7481 35.3347L91.0625 43.2234L91.2297 43.7791C91.2473 43.8337 91.2825 43.8519 91.3265 43.8519H93.4737C93.5265 43.8519 93.5617 43.8155 93.5705 43.7791L93.7377 43.2234L96.0521 35.3347C96.0873 35.2163 96.2545 35.2436 96.2545 35.3712V50.5837C96.2545 50.6384 96.3073 50.6839 96.3513 50.6839H99.1585C99.2113 50.6839 99.2553 50.6293 99.2553 50.5837V30.5615C99.2553 30.5068 99.2025 30.4521 99.1585 30.4521L97.5305 30.4613Z" fill="white"/>
<path d="M176.378 30.4613C176.325 30.4613 176.29 30.4977 176.272 30.5341L173.975 38.3773C173.94 38.4775 173.808 38.4775 173.773 38.3773L171.467 30.5341C171.45 30.4795 171.415 30.4613 171.362 30.4613H167.094C167.041 30.4613 166.988 30.5159 166.988 30.5706V50.5837C166.988 50.6384 167.041 50.6839 167.094 50.6839H169.901C169.954 50.6839 170.007 50.6293 170.007 50.5837V35.3712C170.007 35.2528 170.174 35.2345 170.209 35.3347L172.523 43.2234L172.691 43.7791C172.708 43.8337 172.743 43.8519 172.796 43.8519H174.943C174.996 43.8519 175.023 43.8155 175.04 43.7791L175.207 43.2234L177.531 35.3347C177.566 35.2163 177.733 35.2436 177.733 35.3712V50.5837C177.733 50.6384 177.786 50.6839 177.83 50.6839H180.637C180.69 50.6839 180.743 50.6293 180.743 50.5837V30.5615C180.743 30.5068 180.69 30.4521 180.637 30.4521L176.378 30.4613Z" fill="white"/>
<path d="M140.19 30.4609H134.963H132.156H126.929C126.876 30.4609 126.832 30.5156 126.832 30.5702V33.0662C126.832 33.1209 126.885 33.1755 126.929 33.1755H132.05V50.5925C132.05 50.6472 132.103 50.6927 132.147 50.6927H134.954C135.007 50.6927 135.051 50.6381 135.051 50.5925V33.1664H140.173C140.226 33.1664 140.27 33.1117 140.27 33.0571V30.5611C140.287 30.5065 140.261 30.4609 140.19 30.4609Z" fill="white"/>
<path d="M156.734 50.6842H159.286C159.356 50.6842 159.4 50.6113 159.391 50.5476L154.12 30.4615C154.103 30.4069 154.067 30.3887 154.015 30.3887H153.038H151.322H150.345C150.292 30.3887 150.257 30.4251 150.239 30.4615L144.968 50.5476C144.951 50.6205 145.003 50.6842 145.074 50.6842H147.626C147.679 50.6842 147.714 50.6478 147.731 50.6113L149.263 44.7632C149.28 44.7085 149.315 44.6903 149.368 44.6903H155.009C155.062 44.6903 155.097 44.7267 155.115 44.7632L156.646 50.6113C156.655 50.6478 156.699 50.6842 156.734 50.6842ZM150.037 41.8391L152.087 34.0142C152.123 33.914 152.255 33.914 152.29 34.0142L154.34 41.8391C154.358 41.912 154.305 41.9757 154.243 41.9757H150.134C150.063 41.9757 150.019 41.9028 150.037 41.8391Z" fill="white"/>
<path d="M200.277 50.6842H202.829C202.899 50.6842 202.943 50.6113 202.934 50.5476L197.654 30.4615C197.637 30.4069 197.602 30.3887 197.558 30.3887H196.581H194.865H193.888C193.835 30.3887 193.8 30.4251 193.782 30.4615L188.511 50.5476C188.494 50.6205 188.546 50.6842 188.608 50.6842H191.16C191.213 50.6842 191.248 50.6478 191.266 50.6113L192.797 44.7632C192.814 44.7085 192.85 44.6903 192.894 44.6903H198.534C198.587 44.6903 198.622 44.7267 198.64 44.7632L200.171 50.6113C200.189 50.6478 200.224 50.6842 200.277 50.6842ZM193.571 41.8391L195.622 34.0142C195.657 33.914 195.789 33.914 195.824 34.0142L197.874 41.8391C197.892 41.912 197.839 41.9757 197.778 41.9757H193.677C193.606 41.9757 193.554 41.9028 193.571 41.8391Z" fill="white"/>
<path d="M110.66 47.714V41.5014C110.66 41.4468 110.713 41.3921 110.766 41.3921H118.237C118.29 41.3921 118.334 41.3375 118.334 41.2919V38.796C118.334 38.7413 118.281 38.6866 118.237 38.6866H110.766C110.713 38.6866 110.66 38.632 110.66 38.5864V33.2757C110.66 33.2211 110.713 33.1755 110.766 33.1755H119.266C119.319 33.1755 119.372 33.1209 119.372 33.0662V30.5702C119.372 30.5156 119.319 30.4609 119.266 30.4609H110.669H107.765C107.712 30.4609 107.668 30.5156 107.668 30.5702V33.1755V38.7049V41.4103V47.8233V50.5652C107.668 50.6198 107.721 50.6654 107.765 50.6654H110.669H119.618C119.671 50.6654 119.724 50.6107 119.724 50.5652V47.9326C119.724 47.8779 119.671 47.8324 119.618 47.8324H110.748C110.695 47.8142 110.66 47.7869 110.66 47.714Z" fill="white"/>
<path d="M244.953 50.5112L235.246 40.1539C235.211 40.1175 235.211 40.0446 235.246 40.0173L243.985 30.6529C244.055 30.58 244.002 30.4798 243.914 30.4798H240.333C240.297 30.4798 240.28 30.498 240.262 30.5162L232.853 38.4596C232.782 38.5324 232.685 38.4778 232.685 38.3867V30.58C232.685 30.5254 232.633 30.4707 232.58 30.4707H229.773C229.72 30.4707 229.676 30.5254 229.676 30.58V50.5932C229.676 50.6478 229.729 50.7025 229.773 50.7025H232.58C232.633 50.7025 232.685 50.6478 232.685 50.5932V41.7845C232.685 41.6934 232.8 41.6478 232.853 41.7116L241.248 50.6569C241.265 50.6752 241.301 50.6934 241.318 50.6934H244.9C244.97 50.6843 245.023 50.5567 244.953 50.5112Z" fill="white"/>
<path d="M66.3668 19.6846L49.3828 32.6927L52.542 25.0317L66.3668 19.6846Z" fill="#E17726" stroke="#E17726" stroke-width="0.78" stroke-miterlimit="22.927" stroke-linecap="round" stroke-linejoin="round"/>
<path d="M27.1914 19.6846L44.0258 32.8202L41.0162 25.0317L27.1914 19.6846Z" fill="#E27625" stroke="#E27625" stroke-width="0.78" stroke-miterlimit="22.927" stroke-linecap="round" stroke-linejoin="round"/>
<path d="M60.2527 49.8447L55.7383 56.9955L65.4095 59.7465L68.1815 49.9996L60.2527 49.8447Z" fill="#E27625" stroke="#E27625" stroke-width="0.78" stroke-miterlimit="22.927" stroke-linecap="round" stroke-linejoin="round"/>
<path d="M25.3945 49.9996L28.1489 59.7465L37.8113 56.9955L33.3057 49.8447L25.3945 49.9996Z" fill="#E27625" stroke="#E27625" stroke-width="0.78" stroke-miterlimit="22.927" stroke-linecap="round" stroke-linejoin="round"/>
<path d="M37.2905 37.7752L34.5977 41.9746L44.1721 42.4209L43.8553 31.7539L37.2905 37.7752Z" fill="#E27625" stroke="#E27625" stroke-width="0.78" stroke-miterlimit="22.927" stroke-linecap="round" stroke-linejoin="round"/>
<path d="M56.2732 37.7754L49.6028 31.6357L49.3828 42.4212L58.9572 41.9748L56.2732 37.7754Z" fill="#E27625" stroke="#E27625" stroke-width="0.78" stroke-miterlimit="22.927" stroke-linecap="round" stroke-linejoin="round"/>
<path d="M37.8125 56.9963L43.6029 54.0996L38.6133 50.0732L37.8125 56.9963Z" fill="#E27625" stroke="#E27625" stroke-width="0.78" stroke-miterlimit="22.927" stroke-linecap="round" stroke-linejoin="round"/>
<path d="M49.957 54.0996L55.7386 56.9963L54.9466 50.0732L49.957 54.0996Z" fill="#E27625" stroke="#E27625" stroke-width="0.78" stroke-miterlimit="22.927" stroke-linecap="round" stroke-linejoin="round"/>
<path d="M55.7386 56.9964L49.957 54.0996L50.4234 57.9802L50.3794 59.629L55.7386 56.9964Z" fill="#D5BFB2" stroke="#D5BFB2" stroke-width="0.78" stroke-miterlimit="22.927" stroke-linecap="round" stroke-linejoin="round"/>
<path d="M37.8125 56.9964L43.1893 59.629L43.1541 57.9802L43.6029 54.0996L37.8125 56.9964Z" fill="#D5BFB2" stroke="#D5BFB2" stroke-width="0.78" stroke-miterlimit="22.927" stroke-linecap="round" stroke-linejoin="round"/>
<path d="M43.2853 47.5044L38.4805 46.0469L41.8773 44.4346L43.2853 47.5044Z" fill="#233447" stroke="#233447" stroke-width="0.78" stroke-miterlimit="22.927" stroke-linecap="round" stroke-linejoin="round"/>
<path d="M50.2734 47.5044L51.6814 44.4346L55.0958 46.0469L50.2734 47.5044Z" fill="#233447" stroke="#233447" stroke-width="0.78" stroke-miterlimit="22.927" stroke-linecap="round" stroke-linejoin="round"/>
<path d="M37.8103 56.9955L38.6463 49.8447L33.3047 49.9996L37.8103 56.9955Z" fill="#CC6228" stroke="#CC6228" stroke-width="0.78" stroke-miterlimit="22.927" stroke-linecap="round" stroke-linejoin="round"/>
<path d="M54.9102 49.8447L55.7374 56.9955L60.2518 49.9996L54.9102 49.8447Z" fill="#CC6228" stroke="#CC6228" stroke-width="0.78" stroke-miterlimit="22.927" stroke-linecap="round" stroke-linejoin="round"/>
<path d="M58.9572 41.9756L49.3828 42.4219L50.2716 47.5049L51.6796 44.4351L55.094 46.0474L58.9572 41.9756Z" fill="#CC6228" stroke="#CC6228" stroke-width="0.78" stroke-miterlimit="22.927" stroke-linecap="round" stroke-linejoin="round"/>
<path d="M38.4785 46.0474L41.8753 44.4351L43.2833 47.5049L44.1721 42.4219L34.5977 41.9756L38.4785 46.0474Z" fill="#CC6228" stroke="#CC6228" stroke-width="0.78" stroke-miterlimit="22.927" stroke-linecap="round" stroke-linejoin="round"/>
<path d="M34.5977 41.9756L38.6105 50.0738L38.4785 46.0474L34.5977 41.9756Z" fill="#E27525" stroke="#E27525" stroke-width="0.78" stroke-miterlimit="22.927" stroke-linecap="round" stroke-linejoin="round"/>
<path d="M55.0988 46.0474L54.9492 50.0738L58.962 41.9756L55.0988 46.0474Z" fill="#E27525" stroke="#E27525" stroke-width="0.78" stroke-miterlimit="22.927" stroke-linecap="round" stroke-linejoin="round"/>
<path d="M44.174 42.4209L43.2852 47.5039L44.4116 53.5069L44.6668 45.6L44.174 42.4209Z" fill="#E27525" stroke="#E27525" stroke-width="0.78" stroke-miterlimit="22.927" stroke-linecap="round" stroke-linejoin="round"/>
<path d="M49.3854 42.4209L48.9102 45.5818L49.1478 53.5069L50.2742 47.5039L49.3854 42.4209Z" fill="#E27525" stroke="#E27525" stroke-width="0.78" stroke-miterlimit="22.927" stroke-linecap="round" stroke-linejoin="round"/>
<path d="M50.2748 47.5034L49.1484 53.5064L49.958 54.0985L54.9476 50.0722L55.0972 46.0459L50.2748 47.5034Z" fill="#F5841F" stroke="#F5841F" stroke-width="0.78" stroke-miterlimit="22.927" stroke-linecap="round" stroke-linejoin="round"/>
<path d="M38.4805 46.0459L38.6125 50.0722L43.6021 54.0985L44.4117 53.5064L43.2853 47.5034L38.4805 46.0459Z" fill="#F5841F" stroke="#F5841F" stroke-width="0.78" stroke-miterlimit="22.927" stroke-linecap="round" stroke-linejoin="round"/>
<path d="M50.3789 59.6287L50.4229 57.9799L49.9917 57.5973H43.5765L43.1541 57.9799L43.1893 59.6287L37.8125 56.9961L39.6957 58.5902L43.5061 61.3139H50.0357L53.8725 58.5902L55.7381 56.9961L50.3789 59.6287Z" fill="#C0AC9D" stroke="#C0AC9D" stroke-width="0.78" stroke-miterlimit="22.927" stroke-linecap="round" stroke-linejoin="round"/>
<path d="M49.9547 54.0999L49.1451 53.5078H44.4107L43.6011 54.0999L43.1523 57.9805L43.5747 57.5979H49.9899L50.4211 57.9805L49.9547 54.0999Z" fill="#161616" stroke="#161616" stroke-width="0.78" stroke-miterlimit="22.927" stroke-linecap="round" stroke-linejoin="round"/>
<path d="M67.0906 33.5489L68.5162 26.3617L66.369 19.6846L49.957 32.2645L56.2754 37.7757L65.1898 40.4629L67.1522 38.0854L66.2986 37.4477L67.6626 36.1633L66.6154 35.3344L67.9794 34.2595L67.0906 33.5489Z" fill="#763E1A" stroke="#763E1A" stroke-width="0.78" stroke-miterlimit="22.927" stroke-linecap="round" stroke-linejoin="round"/>
<path d="M25.043 26.3617L26.4862 33.5489L25.5622 34.2595L26.9438 35.3344L25.8966 36.1633L27.2606 37.4477L26.407 38.0854L28.3694 40.4629L37.2926 37.7757L43.6022 32.2645L27.1902 19.6846L25.043 26.3617Z" fill="#763E1A" stroke="#763E1A" stroke-width="0.78" stroke-miterlimit="22.927" stroke-linecap="round" stroke-linejoin="round"/>
<path d="M65.1924 40.4636L56.278 37.7764L58.962 41.9758L54.9492 50.0739L60.2556 50.0011H68.1844L65.1924 40.4636Z" fill="#F5841F" stroke="#F5841F" stroke-width="0.78" stroke-miterlimit="22.927" stroke-linecap="round" stroke-linejoin="round"/>
<path d="M37.2921 37.7764L28.3689 40.4636L25.3945 50.0011H33.3057L38.6121 50.0739L34.5993 41.9758L37.2921 37.7764Z" fill="#F5841F" stroke="#F5841F" stroke-width="0.78" stroke-miterlimit="22.927" stroke-linecap="round" stroke-linejoin="round"/>
<path d="M49.3844 42.4219L49.9564 32.265L52.5436 25.0322H41.0156L43.6028 32.265L44.1748 42.4219L44.3948 45.6193L44.4124 53.5079H49.1468L49.1644 45.6193L49.3844 42.4219Z" fill="#F5841F" stroke="#F5841F" stroke-width="0.78" stroke-miterlimit="22.927" stroke-linecap="round" stroke-linejoin="round"/>
<path d="M66.3668 19.6855L49.3828 32.6936L52.542 25.0327L66.3668 19.6855Z" fill="#959595" stroke="#959595" stroke-width="0.78" stroke-miterlimit="22.927" stroke-linecap="round" stroke-linejoin="round"/>
<path d="M27.2031 19.6855L44.0287 32.8212L41.0191 25.0327L27.2031 19.6855Z" fill="#959595" stroke="#959595" stroke-width="0.78" stroke-miterlimit="22.927" stroke-linecap="round" stroke-linejoin="round"/>
<path d="M60.2527 49.8467L55.7383 56.9975L65.4095 59.7485L68.1815 50.0015L60.2527 49.8467Z" fill="#959595" stroke="#959595" stroke-width="0.78" stroke-miterlimit="22.927" stroke-linecap="round" stroke-linejoin="round"/>
<path d="M25.3945 50.0015L28.1489 59.7485L37.8113 56.9975L33.3057 49.8467L25.3945 50.0015Z" fill="#959595" stroke="#959595" stroke-width="0.78" stroke-miterlimit="22.927" stroke-linecap="round" stroke-linejoin="round"/>
<path d="M37.2905 37.7761L34.5977 41.9755L44.1721 42.4219L43.8553 31.7549L37.2905 37.7761Z" fill="#959595" stroke="white" stroke-width="0.78" stroke-miterlimit="22.927" stroke-linecap="round" stroke-linejoin="round"/>
<path d="M56.2732 37.7764L49.6028 31.6367L49.3828 42.4221L58.9572 41.9758L56.2732 37.7764Z" fill="#959595" stroke="white" stroke-width="0.78" stroke-miterlimit="22.927" stroke-linecap="round" stroke-linejoin="round"/>
<path d="M37.8125 56.9963L43.6029 54.0996L38.6133 50.0732L37.8125 56.9963Z" fill="#959595" stroke="#959595" stroke-width="0.78" stroke-miterlimit="22.927" stroke-linecap="round" stroke-linejoin="round"/>
<path d="M49.957 54.0996L55.7386 56.9963L54.9466 50.0732L49.957 54.0996Z" fill="#959595" stroke="#959595" stroke-width="0.78" stroke-miterlimit="22.927" stroke-linecap="round" stroke-linejoin="round"/>
<path d="M55.7386 56.9973L49.957 54.1006L50.4234 57.9812L50.3794 59.6299L55.7386 56.9973Z" fill="#C4C4C4" stroke="white" stroke-width="0.78" stroke-miterlimit="22.927" stroke-linecap="round" stroke-linejoin="round"/>
<path d="M37.8125 56.9973L43.1893 59.6299L43.1541 57.9812L43.6029 54.1006L37.8125 56.9973Z" fill="#C4C4C4" stroke="white" stroke-width="0.78" stroke-miterlimit="22.927" stroke-linecap="round" stroke-linejoin="round"/>
<path d="M43.2853 47.5054L38.4805 46.0479L41.8773 44.4355L43.2853 47.5054Z" fill="#233447" stroke="#233447" stroke-width="0.78" stroke-miterlimit="22.927" stroke-linecap="round" stroke-linejoin="round"/>
<path d="M50.2734 47.5054L51.6814 44.4355L55.0958 46.0479L50.2734 47.5054Z" fill="#233447" stroke="#233447" stroke-width="0.78" stroke-miterlimit="22.927" stroke-linecap="round" stroke-linejoin="round"/>
<path d="M37.8103 56.9975L38.6463 49.8467L33.3047 50.0015L37.8103 56.9975Z" fill="#828282" stroke="#828282" stroke-width="0.78" stroke-miterlimit="22.927" stroke-linecap="round" stroke-linejoin="round"/>
<path d="M54.9102 49.8467L55.7374 56.9975L60.2518 50.0015L54.9102 49.8467Z" fill="#828282" stroke="#828282" stroke-width="0.78" stroke-miterlimit="22.927" stroke-linecap="round" stroke-linejoin="round"/>
<path d="M58.9572 41.9756L49.3828 42.4219L50.2716 47.5049L51.6796 44.4351L55.094 46.0474L58.9572 41.9756Z" fill="#828282" stroke="#959595" stroke-width="0.78" stroke-miterlimit="22.927" stroke-linecap="round" stroke-linejoin="round"/>
<path d="M38.4785 46.0474L41.8753 44.4351L43.2833 47.5049L44.1721 42.4219L34.5977 41.9756L38.4785 46.0474Z" fill="#828282" stroke="#959595" stroke-width="0.78" stroke-miterlimit="22.927" stroke-linecap="round" stroke-linejoin="round"/>
<path d="M34.5977 41.9756L38.6105 50.0738L38.4785 46.0474L34.5977 41.9756Z" fill="#959595" stroke="#959595" stroke-width="0.78" stroke-miterlimit="22.927" stroke-linecap="round" stroke-linejoin="round"/>
<path d="M55.0988 46.0474L54.9492 50.0738L58.962 41.9756L55.0988 46.0474Z" fill="#959595" stroke="#959595" stroke-width="0.78" stroke-miterlimit="22.927" stroke-linecap="round" stroke-linejoin="round"/>
<path d="M44.174 42.4219L43.2852 47.5049L44.4116 53.5079L44.6668 45.601L44.174 42.4219Z" fill="#959595" stroke="#959595" stroke-width="0.78" stroke-miterlimit="22.927" stroke-linecap="round" stroke-linejoin="round"/>
<path d="M49.3854 42.4219L48.9102 45.5828L49.1478 53.5079L50.2742 47.5049L49.3854 42.4219Z" fill="#959595" stroke="#959595" stroke-width="0.78" stroke-miterlimit="22.927" stroke-linecap="round" stroke-linejoin="round"/>
<path d="M50.2748 47.5053L49.1484 53.5084L49.958 54.1005L54.9476 50.0742L55.0972 46.0479L50.2748 47.5053Z" fill="#A4A4A4" stroke="#A4A4A4" stroke-width="0.78" stroke-miterlimit="22.927" stroke-linecap="round" stroke-linejoin="round"/>
<path d="M38.4805 46.0479L38.6125 50.0742L43.6021 54.1005L44.4117 53.5084L43.2853 47.5053L38.4805 46.0479Z" fill="#A4A4A4" stroke="#A4A4A4" stroke-width="0.78" stroke-miterlimit="22.927" stroke-linecap="round" stroke-linejoin="round"/>
<path d="M50.3789 59.6287L50.4229 57.9799L49.9917 57.5973H43.5765L43.1541 57.9799L43.1893 59.6287L37.8125 56.9961L39.6957 58.5902L43.5061 61.3139H50.0357L53.8725 58.5902L55.7381 56.9961L50.3789 59.6287Z" fill="#B0B0B0" stroke="white" stroke-width="0.78" stroke-miterlimit="22.927" stroke-linecap="round" stroke-linejoin="round"/>
<path d="M49.9547 54.0999L49.1451 53.5078H44.4107L43.6011 54.0999L43.1523 57.9805L43.5747 57.5979H49.9899L50.4211 57.9805L49.9547 54.0999Z" fill="#161616" stroke="#161616" stroke-width="0.78" stroke-miterlimit="22.927" stroke-linecap="round" stroke-linejoin="round"/>
<path d="M67.0906 33.5499L68.5162 26.3627L66.369 19.6855L49.957 32.2655L56.2754 37.7766L65.1898 40.4639L67.1522 38.0864L66.2986 37.4487L67.6626 36.1643L66.6154 35.3353L67.9794 34.2604L67.0906 33.5499Z" fill="#4D4D4D" stroke="#4D4D4D" stroke-width="0.78" stroke-miterlimit="22.927" stroke-linecap="round" stroke-linejoin="round"/>
<path d="M25.043 26.3617L26.4862 33.5489L25.5622 34.2595L26.9438 35.3344L25.8966 36.1633L27.2606 37.4477L26.407 38.0854L28.3694 40.4629L37.2926 37.7757L43.6022 32.2645L27.199 19.6846L25.043 26.3617Z" fill="#4D4D4D" stroke="#4D4D4D" stroke-width="0.78" stroke-miterlimit="22.927" stroke-linecap="round" stroke-linejoin="round"/>
<path d="M65.1924 40.4636L56.278 37.7764L58.962 41.9758L54.9492 50.0739L60.2556 50.0011H68.1844L65.1924 40.4636Z" fill="#A4A4A4" stroke="#A4A4A4" stroke-width="0.78" stroke-miterlimit="22.927" stroke-linecap="round" stroke-linejoin="round"/>
<path d="M37.2921 37.7764L28.3689 40.4636L25.3945 50.0011H33.3057L38.6121 50.0739L34.5993 41.9758L37.2921 37.7764Z" fill="#A4A4A4" stroke="#A4A4A4" stroke-width="0.78" stroke-miterlimit="22.927" stroke-linecap="round" stroke-linejoin="round"/>
<path d="M49.3844 42.4219L49.9564 32.265L52.5436 25.0322H41.0156L43.6028 32.265L44.1748 42.4219L44.3948 45.6193L44.4124 53.5079H49.1468L49.1644 45.6193L49.3844 42.4219Z" fill="#A4A4A4" stroke="#A4A4A4" stroke-width="0.78" stroke-miterlimit="22.927" stroke-linecap="round" stroke-linejoin="round"/>
</g>
<defs>
<clipPath id="clip0_5174_5477">
<rect width="220" height="45" fill="white" transform="translate(25 18)"/>
</clipPath>
</defs>
</svg>
