<svg width="306" height="82" viewBox="0 0 306 82" fill="none" xmlns="http://www.w3.org/2000/svg">
<g clip-path="url(#clip0_5174_5562)">
<path d="M26.1573 32.4113C33.451 25.1975 45.2729 25.1975 52.5665 32.4113L53.443 33.2819C53.8056 33.6433 53.8056 34.2288 53.443 34.5902L50.4409 37.5582C50.2596 37.7364 49.9624 37.7364 49.781 37.5582L48.5721 36.3619C43.4847 31.3321 35.2341 31.3321 30.1467 36.3619L28.8521 37.6397C28.6708 37.8179 28.3736 37.8179 28.1923 37.6397L25.1902 34.6717C24.8276 34.3102 24.8276 33.7248 25.1902 33.3633L26.1523 32.4113H26.1573ZM58.7772 38.551L61.4468 41.1931C61.8095 41.5546 61.8095 42.1401 61.4468 42.5015L49.3982 54.4193C49.0356 54.7808 48.4412 54.7808 48.0785 54.4193L39.5256 45.9633C39.435 45.8717 39.2889 45.8717 39.1932 45.9633L30.6403 54.4193C30.2776 54.7808 29.6833 54.7808 29.3206 54.4193L17.272 42.5015C16.9093 42.1401 16.9093 41.5546 17.272 41.1931L19.9416 38.551C20.3043 38.1895 20.8987 38.1895 21.2613 38.551L29.8142 47.007C29.9049 47.0986 30.051 47.0986 30.1467 47.007L38.6996 38.551C39.0622 38.1895 39.6566 38.1895 40.0193 38.551L48.5721 47.0121C48.6628 47.1037 48.8089 47.1037 48.9046 47.0121L57.4575 38.5561C57.8201 38.1946 58.4145 38.1946 58.7772 38.5561V38.551Z" fill="white"/>
<path d="M79.7594 52.465L83.6228 36.841C83.8545 35.9807 84.0509 35.0541 84.3129 33.5981C84.5093 35.0541 84.741 35.9807 84.9022 36.841L88.2417 52.465H95.1526L100.98 29.2912H95.6764L92.4678 43.5254C92.1404 44.9152 91.944 46.0098 91.7123 47.6287C91.4503 46.0708 91.1884 44.9152 90.8912 43.5559L87.7783 29.2861H80.8323L77.4575 43.5559C77.1603 44.9152 76.9336 46.0047 76.6717 47.6287C76.4097 46.0047 76.178 44.9152 75.8859 43.5559L72.7428 29.2861H67.207L73.0047 52.4599H79.7543L79.7594 52.465Z" fill="white"/>
<path d="M105.586 53.06C108.206 53.06 109.878 51.9655 110.729 50.3771C110.629 50.876 110.598 51.3699 110.598 51.8688V52.4644H114.986V42.8986C114.986 38.332 112.92 35.6797 107.878 35.6797C103.521 35.6797 100.67 38.1284 100.408 41.5037H105.224C105.39 40.012 106.438 39.1211 108.04 39.1211C109.546 39.1211 110.367 39.9815 110.367 40.9742C110.367 41.7022 109.938 42.135 108.664 42.2979L106.372 42.5626C102.967 42.9953 100.051 44.2528 100.051 47.8928C100.051 51.2019 102.771 53.055 105.586 53.055V53.06ZM107.062 49.6491C105.783 49.6491 104.836 48.9211 104.836 47.6637C104.836 46.4062 105.919 45.8411 107.556 45.5459L108.669 45.3473C109.621 45.1488 110.145 44.9808 110.472 44.6855V46.2077C110.472 48.2593 108.997 49.6491 107.067 49.6491H107.062Z" fill="white"/>
<path d="M117.48 29.29V52.4639H122.23V29.29H117.48Z" fill="white"/>
<path d="M125.191 29.29V52.4639H129.941V29.29H125.191Z" fill="white"/>
<path d="M140.531 53.06C145.049 53.06 147.966 50.479 148.293 47.1037H143.513C143.281 48.5953 142.037 49.42 140.531 49.42C138.501 49.42 137.025 47.7655 136.995 45.4797H148.394V44.5531C148.394 39.1924 145.477 35.6797 140.435 35.6797C135.393 35.6797 132.18 39.1211 132.18 44.319C132.18 49.9444 135.685 53.06 140.531 53.06ZM136.96 42.3335C137.156 40.4804 138.501 39.1211 140.4 39.1211C142.299 39.1211 143.513 40.4142 143.543 42.3335H136.96Z" fill="white"/>
<path d="M158.66 52.7949C159.707 52.7949 160.725 52.6269 161.183 52.4945V48.8545C160.82 48.9207 160.397 48.9563 160.035 48.9563C158.297 48.9563 157.677 47.9636 157.677 46.3396V39.9811H161.541V36.2392H157.677V30.4814H152.963V36.2392H149.492V39.9811H152.963V47.0014C152.963 50.84 154.862 52.7949 158.66 52.7949Z" fill="white"/>
<path d="M174.685 53.0604C181.172 53.0604 185.101 49.2219 185.59 43.6931H180.447C180.054 46.707 177.959 48.7586 174.881 48.7586C171.244 48.7586 168.691 45.7804 168.691 40.7455C168.691 35.7106 171.345 32.9971 174.982 32.9971C178.095 32.9971 179.863 34.9164 180.221 37.7317H185.494C184.97 31.9739 180.78 28.6953 175.012 28.6953C168.429 28.6953 163.387 33.1957 163.387 40.7455C163.387 48.2953 167.809 53.0604 174.685 53.0604Z" fill="white"/>
<path d="M195.675 53.06C200.621 53.06 204.127 49.9139 204.127 44.4208C204.127 38.9277 200.621 35.6797 195.675 35.6797C190.728 35.6797 187.258 39.0244 187.258 44.4208C187.258 49.8171 190.728 53.06 195.675 53.06ZM195.675 49.3539C193.479 49.3539 192.073 47.5313 192.073 44.4208C192.073 41.3102 193.549 39.4571 195.675 39.4571C197.8 39.4571 199.311 41.244 199.311 44.4208C199.311 47.5975 197.871 49.3539 195.675 49.3539Z" fill="white"/>
<path d="M210.746 52.4644V42.9648C210.746 40.9437 211.99 39.4571 213.758 39.4571C215.43 39.4571 216.413 40.7502 216.413 42.8986V52.4644H221.163V42.2011C221.163 38.2964 219.133 35.6797 215.496 35.6797C212.972 35.6797 211.436 36.9066 210.615 38.3626C210.711 37.767 210.746 37.3037 210.746 36.871V36.2397H205.996V52.4593H210.746V52.4644Z" fill="white"/>
<path d="M228.535 52.4644V42.9648C228.535 40.9437 229.779 39.4571 231.547 39.4571C233.22 39.4571 234.202 40.7502 234.202 42.8986V52.4644H238.952V42.2011C238.952 38.2964 236.922 35.6797 233.285 35.6797C230.761 35.6797 229.225 36.9066 228.404 38.3626C228.5 37.767 228.535 37.3037 228.535 36.871V36.2397H223.785V52.4593H228.535V52.4644Z" fill="white"/>
<path d="M249.176 53.06C253.694 53.06 256.61 50.479 256.938 47.1037H252.158C251.926 48.5953 250.682 49.42 249.176 49.42C247.146 49.42 245.67 47.7655 245.64 45.4797H257.038V44.5531C257.038 39.1924 254.122 35.6797 249.08 35.6797C244.038 35.6797 240.824 39.1211 240.824 44.319C240.824 49.9444 244.33 53.06 249.176 53.06ZM245.604 42.3335C245.801 40.4804 247.141 39.1211 249.045 39.1211C250.949 39.1211 252.158 40.4142 252.188 42.3335H245.604Z" fill="white"/>
<path d="M267.228 53.06C272.205 53.06 274.925 50.311 275.449 46.0397H270.699C270.538 47.8266 269.52 49.3488 267.39 49.3488C265.259 49.3488 263.753 47.3277 263.753 44.3495C263.753 41.1066 265.455 39.4521 267.485 39.4521C269.515 39.4521 270.467 40.908 270.598 42.5982H275.348C274.991 38.6579 272.336 35.6797 267.455 35.6797C262.574 35.6797 258.938 38.8564 258.938 44.3546C258.938 49.8528 262.116 53.06 267.223 53.06H267.228Z" fill="white"/>
<path d="M285.726 52.7949C286.774 52.7949 287.791 52.6269 288.25 52.4945V48.8545C287.887 48.9207 287.464 48.9563 287.101 48.9563C285.363 48.9563 284.744 47.9636 284.744 46.3396V39.9811H288.607V36.2392H284.744V30.4814H280.029V36.2392H276.559V39.9811H280.029V47.0014C280.029 50.84 281.928 52.7949 285.726 52.7949Z" fill="white"/>
</g>
<defs>
<clipPath id="clip0_5174_5562">
<rect width="272" height="28" fill="white" transform="translate(17 27)"/>
</clipPath>
</defs>
</svg>
