<svg width="229" height="82" viewBox="0 0 229 82" fill="none" xmlns="http://www.w3.org/2000/svg">
<g clip-path="url(#clip0_5174_5651)">
<mask id="mask0_5174_5651" style="mask-type:luminance" maskUnits="userSpaceOnUse" x="23" y="11" width="183" height="59">
<path d="M206 11H23V70H206V11Z" fill="white"/>
</mask>
<g mask="url(#mask0_5174_5651)">
<path d="M85.8251 39.604C85.7765 38.294 85.9991 36.9879 86.4797 35.7641C86.9603 34.5403 87.689 33.4242 88.6218 32.4827C89.5547 31.5412 90.6725 30.7937 91.9082 30.2852C93.144 29.7766 94.4721 29.5176 95.8128 29.5235C100.865 29.5235 103.854 32.4216 104.757 35.8239L101.586 36.8696C101.307 35.6013 100.57 34.4736 99.5096 33.6937C98.4491 32.9137 97.1366 32.5337 95.8128 32.6232C92.5394 32.6232 89.2661 34.9543 89.2661 39.667C89.2661 44.3796 92.4621 46.6225 95.8514 46.6225C97.1825 46.6602 98.4881 46.2598 99.5585 45.4851C100.629 44.7104 101.402 43.6067 101.754 42.3509L104.834 43.3338C104.307 45.251 103.124 46.934 101.483 48.1031C99.8418 49.2722 97.8408 49.8569 95.8128 49.7599C94.46 49.7847 93.1166 49.536 91.8668 49.0292C90.617 48.5224 89.4878 47.7687 88.5501 46.8151C87.6123 45.8615 86.8862 44.7287 86.4173 43.4878C85.9484 42.2469 85.7468 40.9247 85.8251 39.604Z" fill="white"/>
<path d="M110.943 49.2934H107.695V29.4727H110.943V37.2472C111.416 36.7003 112.009 36.2655 112.679 35.9752C113.349 35.6849 114.077 35.5469 114.809 35.5713C118.173 35.5713 119.796 37.9277 119.796 40.8636V49.2934H116.639V41.4054C116.698 41.0218 116.668 40.6299 116.551 40.259C116.434 39.8882 116.233 39.5479 115.964 39.2634C115.694 38.979 115.362 38.7576 114.992 38.6157C114.623 38.474 114.225 38.4153 113.83 38.4443C113.437 38.4446 113.049 38.5247 112.689 38.6795C112.33 38.8343 112.007 39.0605 111.742 39.3437C111.476 39.6267 111.274 39.9606 111.148 40.3244C111.021 40.688 110.973 41.0732 111.007 41.4559L110.943 49.2934Z" fill="white"/>
<path d="M127.05 41.6573L130.542 41.128C131.328 41.0271 131.547 40.6366 131.547 40.1703C131.547 39.0489 130.774 38.1416 128.97 38.1416C128.622 38.1124 128.272 38.1527 127.94 38.2597C127.608 38.367 127.303 38.5388 127.041 38.7651C126.78 38.9913 126.568 39.2672 126.419 39.5759C126.27 39.8846 126.186 40.2197 126.173 40.5609L123.209 39.9057C123.454 37.5998 125.593 35.5459 128.944 35.5459C133.145 35.5459 134.743 37.877 134.743 40.5861V47.2015C134.736 47.9189 134.792 48.6356 134.911 49.3435H131.882C131.778 48.7825 131.735 48.2123 131.754 47.6425C131.301 48.3204 130.676 48.8712 129.939 49.2402C129.202 49.6093 128.379 49.7839 127.552 49.7468C126.976 49.7931 126.395 49.7246 125.847 49.5456C125.298 49.3665 124.792 49.0803 124.36 48.7047C123.927 48.3288 123.577 47.8713 123.331 47.3596C123.084 46.8478 122.946 46.2925 122.926 45.7272C122.926 43.2953 124.717 41.9849 127.05 41.6573ZM131.547 43.7993V43.1945L127.991 43.7111C127.507 43.7273 127.049 43.9248 126.71 44.2626C126.372 44.6005 126.18 45.0527 126.173 45.5256C126.177 45.7697 126.233 46.0103 126.337 46.2321C126.441 46.4541 126.592 46.6524 126.778 46.8146C126.965 46.9769 127.184 47.0996 127.421 47.1748C127.659 47.25 127.91 47.2763 128.158 47.2518C128.627 47.2987 129.101 47.2403 129.544 47.0811C129.987 46.9221 130.387 46.6664 130.714 46.3336C131.04 46.0008 131.285 45.5996 131.43 45.1605C131.574 44.7214 131.614 44.2559 131.547 43.7993Z" fill="white"/>
<path d="M140.262 29.1955C140.544 29.1921 140.823 29.2434 141.084 29.3465C141.345 29.4495 141.582 29.602 141.783 29.7955C141.983 29.9889 142.142 30.2191 142.25 30.4731C142.359 30.727 142.415 30.9994 142.415 31.2746C142.415 31.8226 142.192 32.3483 141.795 32.7358C141.399 33.1234 140.862 33.3411 140.301 33.3411C139.74 33.3411 139.203 33.1234 138.807 32.7358C138.41 32.3483 138.188 31.8226 138.188 31.2746C138.187 30.7318 138.404 30.2104 138.792 29.8219C139.18 29.4335 139.707 29.2086 140.262 29.1955ZM138.677 49.3564V35.962H141.886V49.2934L138.677 49.3564Z" fill="white"/>
<path d="M149.334 49.2938H146.086V35.9625H149.256V37.7391C149.668 37.0571 150.259 36.4958 150.969 36.1145C151.679 35.7331 152.481 35.5456 153.29 35.5717C156.615 35.5717 158.213 37.928 158.213 40.864V49.2938H154.965V41.4058C154.965 39.7678 154.205 38.4447 152.169 38.4447C151.763 38.4471 151.363 38.5334 150.994 38.6977C150.626 38.862 150.297 39.1008 150.029 39.3982C149.761 39.6957 149.561 40.0453 149.441 40.4239C149.321 40.8024 149.285 41.2015 149.334 41.5949V49.2938Z" fill="white"/>
<path d="M162.168 49.2934V29.4727H165.415V49.2934H162.168Z" fill="white"/>
<path d="M171.218 29.1953C171.782 29.1953 172.323 29.4143 172.721 29.8043C173.121 30.1942 173.344 30.723 173.344 31.2745C173.341 31.682 173.215 32.0798 172.983 32.4177C172.749 32.7557 172.419 33.0185 172.034 33.1734C171.648 33.3283 171.224 33.3681 170.815 33.288C170.406 33.2078 170.031 33.0113 169.736 32.7229C169.441 32.4347 169.24 32.0677 169.158 31.668C169.076 31.2683 169.117 30.854 169.276 30.4768C169.434 30.0998 169.703 29.7769 170.048 29.5489C170.394 29.3208 170.801 29.1978 171.218 29.1953ZM169.62 49.3562V35.9619H172.841V49.2932L169.62 49.3562Z" fill="white"/>
<path d="M180.287 49.2933H177.039V35.962H180.197V37.7386C180.609 37.0584 181.202 36.4987 181.911 36.1176C182.621 35.7365 183.422 35.548 184.23 35.5713C187.568 35.5713 189.165 37.9276 189.165 40.8636V49.2933H185.918V41.4053C185.978 41.0217 185.948 40.6298 185.831 40.259C185.714 39.8881 185.513 39.5479 185.243 39.2633C184.973 38.979 184.641 38.7576 184.271 38.6157C183.902 38.4739 183.504 38.4152 183.108 38.4443C182.705 38.4465 182.304 38.5326 181.937 38.6971C181.568 38.8615 181.239 39.1005 180.972 39.3983C180.705 39.696 180.507 40.0457 180.389 40.4243C180.27 40.8029 180.236 41.2016 180.287 41.5944V49.2933Z" fill="white"/>
<path d="M200.275 41.5945L205.997 49.2934H202.015L198.007 43.7995L196.331 45.5258V49.3059H193.109V29.4727H196.331V41.355L201.565 35.9621H205.882L200.275 41.5945Z" fill="white"/>
<path d="M47.3441 24.1175L61.3913 32.0054V47.8442L47.3828 55.7827L33.3356 47.9074V32.0684L47.3441 24.1175ZM47.3441 12.4746L42.1892 15.3979L28.1549 23.3489L23 26.2722V32.0936V47.9199V53.7413L28.1549 56.6395L42.2021 64.5274L47.357 67.4254L52.5121 64.5021L66.5205 56.5513L71.6754 53.6405V47.8191V31.9802V26.1588L66.5205 23.2607L52.4733 15.3727L47.3184 12.4746H47.3441Z" fill="white"/>
</g>
</g>
<defs>
<clipPath id="clip0_5174_5651">
<rect width="183" height="59" fill="white" transform="translate(23 11)"/>
</clipPath>
</defs>
</svg>
