<svg width="232" height="65" viewBox="0 0 232 65" fill="none" xmlns="http://www.w3.org/2000/svg">
<g clip-path="url(#clip0_5174_5679)">
<mask id="mask0_5174_5679" style="mask-type:luminance" maskUnits="userSpaceOnUse" x="0" y="5" width="39" height="55">
<path d="M33.8545 17.7643C33.8024 17.4444 33.6269 17.1582 33.3662 16.9679C33.1055 16.7777 32.7807 16.6989 32.4625 16.7487C32.2125 16.7822 31.9812 16.9004 31.8068 17.0839L25.5126 23.4112L20.5901 13.9456C20.5167 13.8035 20.4162 13.6773 20.2943 13.5743C20.1724 13.4714 20.0315 13.3936 19.8798 13.3455C19.728 13.2974 19.5683 13.2799 19.4098 13.294C19.2513 13.3081 19.0971 13.3535 18.9561 13.4276C18.7423 13.5517 18.5649 13.7304 18.4416 13.9456L15.7585 19.1253L8.99015 6.40966C8.91425 6.27001 8.81171 6.14684 8.6884 6.04721C8.56509 5.94759 8.42345 5.87347 8.27161 5.82911C8.11978 5.78476 7.96073 5.77104 7.80361 5.78875C7.6465 5.80646 7.4944 5.85525 7.35606 5.93231C7.19185 6.02057 7.04946 6.14491 6.93946 6.29611C6.82945 6.44731 6.75465 6.62149 6.72058 6.80575L0.164062 48.9745L17.6649 58.9073C18.2045 59.2051 18.8098 59.3612 19.4251 59.3612C20.0404 59.3612 20.6458 59.2051 21.1853 58.9073L38.8375 49.0151L33.8545 17.7643Z" fill="white"/>
</mask>
<g mask="url(#mask0_5174_5679)">
<path d="M0.164062 48.9752L6.72058 6.80641C6.77026 6.4947 6.94009 6.21531 7.19318 6.02895C7.44626 5.84259 7.76216 5.7643 8.07224 5.81109C8.25539 5.84492 8.42893 5.91885 8.58058 6.02766C8.73223 6.13647 8.85827 6.2775 8.9498 6.44078L15.7181 19.1666L18.4013 13.9869C18.4747 13.8447 18.5752 13.7186 18.6971 13.6156C18.819 13.5126 18.9599 13.4349 19.1117 13.3868C19.2634 13.3387 19.4231 13.3211 19.5816 13.3352C19.7401 13.3493 19.8943 13.3948 20.0354 13.4689C20.2491 13.593 20.4266 13.7717 20.5498 13.9869L38.8072 48.9752H0.164062Z" fill="#DBDBDB"/>
<path opacity="0.12" d="M22.5284 6.09512L-9.50781 3.34277V61.7615L0.16558 48.9748L22.5284 6.09512Z" fill="white"/>
<path d="M22.7992 32.5512L15.7383 19.1348L0.164062 48.9738L22.7992 32.5512Z" fill="#DBDBDB"/>
<path opacity="0.2" d="M-9.50781 3.34277H48.5124V61.7615H-9.50781V3.34277Z" fill="white"/>
<path d="M38.8475 48.975L33.8041 17.7343C33.752 17.4144 33.5765 17.1281 33.3158 16.9379C33.055 16.7477 32.7302 16.6689 32.4121 16.7187C32.1627 16.7544 31.9322 16.8723 31.7564 17.0539L0.164062 48.975L17.6649 58.9078C18.2045 59.2056 18.8098 59.3617 19.4251 59.3617C20.0404 59.3617 20.6458 59.2056 21.1853 58.9078L38.8475 48.975Z" fill="white"/>
<path d="M33.8545 17.7643C33.8024 17.4444 33.6269 17.1582 33.3662 16.9679C33.1055 16.7777 32.7807 16.6989 32.4625 16.7487C32.2125 16.7822 31.9812 16.9004 31.8068 17.0839L25.5126 23.4112L20.5902 13.9456C20.5167 13.8035 20.4162 13.6773 20.2943 13.5743C20.1724 13.4714 20.0315 13.3936 19.8798 13.3455C19.728 13.2974 19.5683 13.2799 19.4098 13.294C19.2513 13.3081 19.0971 13.3535 18.9561 13.4276C18.7423 13.5517 18.5649 13.7304 18.4416 13.9456L15.7585 19.1253L8.99015 6.40966C8.91425 6.27001 8.81171 6.14684 8.6884 6.04721C8.56509 5.94759 8.42345 5.87347 8.27161 5.82911C8.11978 5.78476 7.96073 5.77104 7.80361 5.78875C7.6465 5.80646 7.4944 5.85525 7.35606 5.93231C7.19185 6.02057 7.04946 6.14491 6.93946 6.29611C6.82945 6.44731 6.75465 6.62149 6.72058 6.80575L0.164062 48.9745L0.345628 49.0659L25.563 23.6753L31.8573 17.3479C31.9683 17.2318 32.1015 17.1395 32.2488 17.0764C32.3961 17.0133 32.5546 16.9808 32.7147 16.9808C32.8748 16.9808 33.0332 17.0133 33.1805 17.0764C33.3279 17.1395 33.461 17.2318 33.5721 17.3479C33.7584 17.5246 33.8764 17.7621 33.9049 18.0182L38.8677 48.9542H38.9282L33.8545 17.7643ZM0.224584 48.9136L6.72058 7.11044C6.74153 6.95369 6.79334 6.80273 6.87298 6.66641C6.95262 6.53008 7.05849 6.41114 7.18438 6.31655C7.31027 6.22196 7.45364 6.15362 7.6061 6.11554C7.75856 6.07747 7.91704 6.07042 8.07224 6.09481C8.25612 6.12658 8.43052 6.1997 8.58246 6.30872C8.7344 6.41774 8.85996 6.55986 8.9498 6.7245L15.7182 19.4503L18.4013 14.2706C18.4737 14.1275 18.5737 14.0004 18.6954 13.8966C18.8172 13.7929 18.9583 13.7146 19.1104 13.6664C19.2625 13.6182 19.4227 13.601 19.5815 13.6158C19.7403 13.6306 19.8946 13.6771 20.0354 13.7526C20.2491 13.8767 20.4266 14.0554 20.5498 14.2706L25.3815 23.5229L0.224584 48.9136Z" fill="white" fill-opacity="0.2"/>
<path opacity="0.2" d="M21.1902 58.5633C20.6494 58.8629 20.0422 59.02 19.425 59.02C18.8077 59.02 18.2005 58.8629 17.6597 58.5633L0.199219 48.7523V49.0266L17.6698 58.9086C18.2094 59.2064 18.8147 59.3625 19.43 59.3625C20.0453 59.3625 20.6506 59.2064 21.1902 58.9086L38.8423 49.0164V48.7422L21.1902 58.5633Z" fill="white"/>
<path d="M33.8545 17.7643C33.8024 17.4444 33.6269 17.1582 33.3662 16.9679C33.1055 16.7777 32.7807 16.6989 32.4625 16.7487C32.2125 16.7822 31.9812 16.9004 31.8068 17.0839L25.5126 23.4112L20.5901 13.9456C20.5167 13.8035 20.4162 13.6773 20.2943 13.5743C20.1724 13.4714 20.0315 13.3936 19.8798 13.3455C19.728 13.2974 19.5683 13.2799 19.4098 13.294C19.2513 13.3081 19.0971 13.3535 18.9561 13.4276C18.7423 13.5517 18.5649 13.7304 18.4416 13.9456L15.7585 19.1253L8.99015 6.40966C8.91425 6.27001 8.81171 6.14684 8.6884 6.04721C8.56509 5.94759 8.42345 5.87347 8.27161 5.82911C8.11978 5.78476 7.96073 5.77104 7.80361 5.78875C7.6465 5.80646 7.4944 5.85525 7.35606 5.93231C7.19185 6.02057 7.04946 6.14491 6.93946 6.29611C6.82945 6.44731 6.75465 6.62149 6.72058 6.80575L0.164062 48.9745L17.6649 58.9073C18.2045 59.2051 18.8098 59.3612 19.4251 59.3612C20.0404 59.3612 20.6458 59.2051 21.1853 58.9073L38.8375 49.0151L33.8545 17.7643Z" fill="url(#paint0_linear_5174_5679)"/>
</g>
<path d="M76.0744 48.7507H71.8984V16.1593H90.8317V20.2218H76.0744V30.9061H89.4094V34.8264H76.1047V48.7507H76.0744ZM98.0136 20.821C97.5268 21.3343 96.8772 21.6604 96.1771 21.743C95.477 21.8256 94.7702 21.6595 94.1787 21.2733C93.5873 20.8872 93.1482 20.3053 92.9374 19.628C92.7266 18.9508 92.7572 18.2207 93.024 17.5637C93.2908 16.9067 93.777 16.3642 94.3986 16.0296C95.0203 15.6951 95.7385 15.5896 96.4292 15.7313C97.12 15.873 97.7399 16.2531 98.182 16.8059C98.6241 17.3587 98.8606 18.0496 98.8508 18.7593C98.8554 19.1479 98.7838 19.5336 98.6401 19.8944C98.4965 20.2551 98.2836 20.5838 98.0136 20.8616V20.821ZM98.0136 48.7507H93.8073V26.4069H97.9833L98.0136 48.7507ZM106.719 48.7507H102.543V26.4069H106.577V30.0429H106.759C107.236 28.7552 108.171 27.6913 109.382 27.0569C110.521 26.3185 111.84 25.9109 113.194 25.8788C114.258 25.8462 115.317 26.0257 116.311 26.4069L114.718 30.3272C114 30.0861 113.244 29.9793 112.488 30.0124C111.726 30.0089 110.972 30.1692 110.276 30.4827C109.58 30.7962 108.959 31.2557 108.454 31.8304C107.862 32.4607 107.404 33.2049 107.106 34.0182C106.808 34.8316 106.676 35.6973 106.719 36.5632V48.7507ZM126.328 49.5022C124.803 49.558 123.285 49.285 121.874 48.7017C120.463 48.1185 119.193 47.2383 118.147 46.1202C116.035 43.8168 114.902 40.7732 114.99 37.6397C114.933 34.5566 116.011 31.5613 118.016 29.2304C118.975 28.0919 120.174 27.1844 121.527 26.5745C122.88 25.9646 124.352 25.6679 125.833 25.7061C127.303 25.6389 128.769 25.8938 130.131 26.4532C131.493 27.0126 132.718 27.8631 133.721 28.946C135.805 31.3309 136.89 34.4361 136.747 37.6093V38.3913H119.176C119.198 40.3968 119.998 42.3142 121.405 43.7335C122.038 44.3661 122.789 44.866 123.615 45.2042C124.441 45.5424 125.325 45.7122 126.217 45.7038C129.243 45.7038 131.26 44.4241 132.269 41.8546L135.981 43.4186C135.245 45.1721 134.019 46.6719 132.45 47.735C130.647 48.9675 128.506 49.5997 126.328 49.5429V49.5022ZM132.309 34.8874C132.162 33.514 131.549 32.2336 130.574 31.2616C129.943 30.6494 129.192 30.1776 128.368 29.8767C127.544 29.5757 126.667 29.4524 125.793 29.5147C124.314 29.4805 122.876 30.0018 121.758 30.9772C120.585 31.9972 119.766 33.3667 119.418 34.8874H132.309ZM151.384 49.5022C149.791 49.5364 148.217 49.155 146.814 48.3952C145.573 47.7802 144.526 46.831 143.788 45.653H143.607V48.6999H139.572V16.1593H143.748V26.4069L143.566 29.5147H143.748C144.494 28.3441 145.539 27.397 146.774 26.7725C148.182 26.0265 149.752 25.646 151.343 25.6655C152.753 25.662 154.146 25.9662 155.428 26.557C156.71 27.1479 157.849 28.0114 158.767 29.0882C160.883 31.3929 162.017 34.4415 161.925 37.5788C162.021 40.7062 160.903 43.7484 158.808 46.0593C157.898 47.1508 156.762 48.0284 155.479 48.6303C154.197 49.2321 152.799 49.5436 151.384 49.5429V49.5022ZM150.667 45.7038C151.608 45.7101 152.539 45.5161 153.399 45.1345C154.26 44.7529 155.03 44.1924 155.661 43.4897C157.097 41.898 157.847 39.798 157.749 37.6499C157.847 35.5018 157.097 33.4017 155.661 31.81C155.03 31.1074 154.26 30.5468 153.399 30.1653C152.539 29.7837 151.608 29.5897 150.667 29.596C149.731 29.5782 148.801 29.763 147.942 30.1379C147.082 30.5129 146.312 31.0692 145.685 31.7694C144.281 33.3925 143.558 35.5006 143.667 37.6499C143.603 38.7154 143.749 39.7832 144.095 40.7922C144.441 41.8012 144.981 42.7317 145.685 43.5304C146.314 44.2284 147.084 44.7834 147.943 45.1582C148.802 45.533 149.731 45.719 150.667 45.7038ZM172.294 49.553C170.141 49.6403 168.033 48.916 166.383 47.5218C165.604 46.8612 164.985 46.03 164.575 45.0917C164.164 44.1535 163.972 43.133 164.013 42.1085C163.971 40.9939 164.204 39.8864 164.692 38.8849C165.179 37.8835 165.906 37.0194 166.807 36.3702C168.838 34.949 171.275 34.2357 173.746 34.3389C175.846 34.2526 177.932 34.7181 179.799 35.6897V35.0499C179.824 34.3089 179.689 33.5713 179.401 32.8888C179.114 32.2062 178.681 31.5954 178.134 31.0991C177.006 30.0904 175.537 29.5529 174.029 29.596C172.877 29.5827 171.742 29.8771 170.741 30.4491C169.797 30.9652 169.078 31.8158 168.723 32.8358L164.9 31.2007C165.543 29.703 166.591 28.4182 167.926 27.4936C169.682 26.2839 171.783 25.6848 173.908 25.7874C176.489 25.6914 179.011 26.58 180.969 28.2757C181.93 29.1779 182.679 30.2836 183.164 31.513C183.649 32.7424 183.857 34.0649 183.773 35.385V48.7507H179.738V45.7038H179.546C178.78 46.93 177.706 47.9308 176.433 48.6049C175.159 49.279 173.731 49.6026 172.294 49.5429V49.553ZM172.97 45.7038C174.715 45.6991 176.39 45.0106 177.64 43.7843C178.305 43.219 178.839 42.5144 179.204 41.7197C179.57 40.925 179.759 40.0594 179.758 39.1835C178.223 38.1061 176.37 37.5868 174.503 37.7108C172.872 37.5857 171.25 38.0542 169.934 39.0311C169.47 39.3945 169.091 39.8554 168.822 40.3817C168.554 40.908 168.403 41.4869 168.38 42.078C168.367 42.5982 168.491 43.1126 168.739 43.5691C168.987 44.0256 169.35 44.4082 169.792 44.678C170.726 45.3326 171.832 45.6899 172.97 45.7038ZM195.333 49.553C193.148 49.6431 190.996 49.004 189.21 47.735C187.633 46.5742 186.407 44.9956 185.669 43.1749L189.381 41.6413C189.802 42.9065 190.62 43.9997 191.712 44.7563C192.803 45.5128 194.109 45.8917 195.433 45.8358C196.558 45.8873 197.67 45.5894 198.621 44.9827C199.001 44.7302 199.311 44.3839 199.521 43.9769C199.731 43.5698 199.835 43.1154 199.821 42.6569C199.821 41.1944 198.813 40.1991 196.795 39.7014L192.286 38.5944C190.815 38.2085 189.441 37.5165 188.251 36.5632C187.631 36.0757 187.134 35.4467 186.803 34.728C186.471 34.0092 186.315 33.2214 186.345 32.4296C186.344 31.4722 186.582 30.5299 187.039 29.6901C187.496 28.8504 188.156 28.1403 188.958 27.6257C190.639 26.5036 192.593 25.8643 194.608 25.7766C196.624 25.6889 198.625 26.1561 200.396 27.128C201.915 27.973 203.082 29.339 203.685 30.9772L200.073 32.4702C199.256 30.51 197.562 29.5147 195.03 29.5147C193.941 29.4705 192.863 29.7419 191.923 30.2968C191.542 30.4914 191.221 30.7874 190.995 31.1527C190.77 31.5179 190.647 31.9384 190.642 32.3686C190.642 33.6483 191.651 34.5014 193.577 34.9686L197.965 35.9843C199.731 36.3073 201.353 37.1771 202.605 38.4725C203.577 39.5984 204.104 41.0438 204.088 42.535C204.096 43.5047 203.879 44.4629 203.456 45.3337C203.032 46.2046 202.413 46.9641 201.647 47.5522C199.848 48.9585 197.607 49.6652 195.333 49.5429V49.553ZM217.1 49.553C215.576 49.6087 214.058 49.3358 212.647 48.7525C211.236 48.1692 209.965 47.2891 208.92 46.171C206.799 43.8533 205.669 40.7891 205.773 37.6397C205.716 34.5566 206.794 31.5613 208.799 29.2304C209.757 28.0919 210.957 27.1844 212.31 26.5745C213.663 25.9646 215.134 25.6679 216.616 25.7061C218.085 25.6389 219.552 25.8938 220.914 26.4532C222.276 27.0126 223.501 27.8631 224.504 28.946C226.569 31.3279 227.642 34.4201 227.5 37.5788V38.3608H209.949C209.97 40.3664 210.77 42.2838 212.178 43.703C212.808 44.3411 213.558 44.8466 214.384 45.1901C215.21 45.5336 216.096 45.7082 216.989 45.7038C219.965 45.7038 222.033 44.4241 223.041 41.8546L226.763 43.4186C226.024 45.176 224.79 46.6767 223.213 47.735C221.414 48.9686 219.276 49.601 217.1 49.5429V49.553ZM223.072 34.9382C222.933 33.5645 222.323 32.2824 221.347 31.3124C220.716 30.7002 219.964 30.2284 219.141 29.9274C218.317 29.6265 217.44 29.5032 216.566 29.5655C215.088 29.5408 213.653 30.061 212.531 31.028C211.364 32.0517 210.549 33.4202 210.201 34.9382H223.072Z" fill="white"/>
</g>
<defs>
<linearGradient id="paint0_linear_5174_5679" x1="-0.866622" y1="15.2008" x2="39.7813" y2="55.5983" gradientUnits="userSpaceOnUse">
<stop stop-color="white" stop-opacity="0.1"/>
<stop offset="1" stop-color="white" stop-opacity="0"/>
</linearGradient>
<clipPath id="clip0_5174_5679">
<rect width="232" height="65" fill="white"/>
</clipPath>
</defs>
</svg>
