<svg width="234" height="82" viewBox="0 0 234 82" fill="none" xmlns="http://www.w3.org/2000/svg">
<g clip-path="url(#clip0_5174_5464)">
<path d="M81.156 59.2919V32.8227H85.0624L85.4044 34.9689H85.6096C86.704 33.515 88.6192 32.4766 91.226 32.4766C96.0216 32.4766 99.9204 36.4304 99.9204 42.315C99.9204 48.1996 96.0824 52.1535 91.2184 52.1535C88.6192 52.1535 86.8332 51.0458 85.8756 49.7996H85.6704V59.2227H81.1484V59.2919H81.156ZM95.3984 42.315C95.3984 38.8535 93.2096 36.6996 90.5344 36.6996C87.8592 36.6996 85.6704 38.8458 85.6704 42.315C85.6704 45.7843 87.8592 47.9304 90.5344 47.9304C93.2096 47.9304 95.3984 45.7843 95.3984 42.315Z" fill="white"/>
<path d="M102.18 42.315C102.18 36.5612 106.291 32.4766 111.695 32.4766C117.174 32.4766 121.21 36.6381 121.21 42.315C121.21 48.0689 117.098 52.1535 111.695 52.1535C106.215 52.1535 102.18 47.9996 102.18 42.315ZM116.688 42.315C116.688 38.9227 114.499 36.6996 111.687 36.6996C108.951 36.6996 106.686 38.915 106.686 42.315C106.686 45.715 108.944 47.9304 111.687 47.9304C114.431 47.9304 116.688 45.715 116.688 42.315Z" fill="white"/>
<path d="M124.488 51.8074V25.5459H129.01V51.8074H124.488Z" fill="white"/>
<path d="M145.856 32.8221H150.652L142.504 55.8991C141.684 58.1837 140.589 59.2914 137.64 59.2914H133.263V55.0606H136.956C137.64 55.0606 137.982 54.7145 138.188 54.1606L138.598 52.9145L130.93 32.8145H135.725L140.589 45.9837H141.342L145.727 32.8145H145.856V32.8221Z" fill="white"/>
<path d="M151.54 52.7843H156.13C156.335 54.0304 157.566 55.6919 160.447 55.6919C163.183 55.6919 164.969 53.9612 164.969 51.3227V48.6919H164.764C163.738 49.7996 161.891 50.7689 159.558 50.7689C154.762 50.7689 151 47.0304 151 41.6227C151 36.215 154.694 32.4766 159.558 32.4766C162.02 32.4766 163.874 33.515 165.037 34.8996H165.242L165.584 32.8227H169.491V51.3227C169.491 56.3843 166.139 59.7073 160.454 59.7073C154.07 59.7073 151.676 55.4843 151.54 52.7843ZM164.893 41.6227C164.893 38.6458 162.841 36.5612 160.166 36.5612C157.566 36.5612 155.507 38.6381 155.507 41.6227C155.507 44.6073 157.559 46.6843 160.166 46.6843C162.772 46.6843 164.893 44.5996 164.893 41.6227Z" fill="white"/>
<path d="M172.559 42.315C172.559 36.5612 176.67 32.4766 182.074 32.4766C187.553 32.4766 191.589 36.6381 191.589 42.315C191.589 48.0689 187.477 52.1535 182.074 52.1535C176.594 52.1535 172.559 47.9996 172.559 42.315ZM187.075 42.315C187.075 38.9227 184.817 36.6996 182.074 36.6996C179.338 36.6996 177.073 38.915 177.073 42.315C177.073 45.715 179.33 47.9304 182.074 47.9304C184.81 47.9304 187.075 45.715 187.075 42.315Z" fill="white"/>
<path d="M194.742 51.8073V32.8227H198.649L198.991 34.6227H199.196C199.948 33.7919 201.795 32.4766 204.607 32.4766C208.924 32.4766 212.002 35.5919 212.002 40.4458V51.8766H207.48V41.0689C207.48 38.6458 205.77 36.8381 203.437 36.8381C201.103 36.8381 199.257 38.7073 199.257 41.0689V51.8766H194.742V51.8073Z" fill="white"/>
<path d="M34.0468 49.5915L22.9584 43.0761C22.3428 42.73 22.0008 42.1069 22.0008 41.4146V28.3838C22.0008 27.6915 22.3428 27.0684 22.9584 26.7223L34.0468 20.2069C34.6624 19.8607 35.3464 19.8607 35.962 20.2069L47.058 26.7223C47.6736 27.0684 48.0156 27.6915 48.0156 28.3838V51.5992L55.8208 56.1761L63.626 51.5992V42.5223L55.8208 37.9453L50.6832 40.9223V34.8223L54.8632 32.3992C55.1368 32.2607 55.4788 32.1223 55.8208 32.1223C56.1628 32.1223 56.5048 32.1915 56.7784 32.3992L67.8744 38.9223C68.49 39.2684 68.832 39.8915 68.832 40.5838V53.6146C68.832 54.3069 68.49 54.93 67.8744 55.2761L56.786 61.7915C56.1704 62.1376 55.4864 62.1376 54.8708 61.7915L43.7824 55.2761C43.1668 54.93 42.8248 54.3069 42.8248 53.6146V30.3992L42.688 30.33L35.012 25.8223L27.2068 30.3992V39.4761L35.012 44.0453L40.1496 41.0684V47.1684L35.9696 49.5915C35.354 49.9376 34.67 49.9376 34.0468 49.5915Z" fill="white"/>
</g>
<defs>
<clipPath id="clip0_5174_5464">
<rect width="190" height="42" fill="white" transform="translate(22 20)"/>
</clipPath>
</defs>
</svg>
