<svg width="38" height="31" viewBox="0 0 38 31" fill="none" xmlns="http://www.w3.org/2000/svg">
<g opacity="0.6">
<path d="M23 15.3264C25.412 14.6089 27 13.3869 27 12C27 9.79086 22.9706 8 18 8C13.0294 8 9 9.79086 9 12C9 14.0589 12.5001 15.7545 17 15.9756" stroke="white" stroke-width="2" stroke-linecap="round"/>
<path d="M15.8536 19.1463L18.6464 16.3535C18.8417 16.1582 18.8417 15.8416 18.6464 15.6463L15.8536 12.8535C15.5386 12.5385 15 12.7616 15 13.207V18.7928C15 19.2382 15.5386 19.4613 15.8536 19.1463Z" fill="white"/>
<path d="M0.798 29V24.1H2.912C3.458 24.1 3.88033 24.2097 4.179 24.429C4.48233 24.6483 4.634 24.9587 4.634 25.36C4.634 25.626 4.571 25.85 4.445 26.032C4.32367 26.214 4.15567 26.3517 3.941 26.445C3.731 26.5383 3.5 26.585 3.248 26.585L3.367 26.417C3.67967 26.417 3.948 26.466 4.172 26.564C4.40067 26.6573 4.578 26.7997 4.704 26.991C4.83 27.1777 4.893 27.411 4.893 27.691C4.893 28.1063 4.739 28.4283 4.431 28.657C4.12767 28.8857 3.668 29 3.052 29H0.798ZM1.316 28.573H3.045C3.47433 28.573 3.80333 28.5007 4.032 28.356C4.26067 28.2067 4.375 27.971 4.375 27.649C4.375 27.3317 4.26067 27.1007 4.032 26.956C3.80333 26.8067 3.47433 26.732 3.045 26.732H1.26V26.305H2.877C3.269 26.305 3.57233 26.2303 3.787 26.081C4.00633 25.9317 4.116 25.71 4.116 25.416C4.116 25.1173 4.00633 24.8957 3.787 24.751C3.57233 24.6017 3.269 24.527 2.877 24.527H1.316V28.573ZM5.29134 29L7.53134 24.1H8.04234L10.2823 29H9.73634L7.67834 24.401H7.88834L5.83034 29H5.29134ZM6.17334 27.691L6.32734 27.271H9.17634L9.33034 27.691H6.17334ZM13.1526 29.042C12.7839 29.042 12.4432 28.9813 12.1306 28.86C11.8179 28.734 11.5472 28.559 11.3186 28.335C11.0899 28.111 10.9102 27.8473 10.7796 27.544C10.6536 27.2407 10.5906 26.9093 10.5906 26.55C10.5906 26.1907 10.6536 25.8593 10.7796 25.556C10.9102 25.2527 11.0899 24.989 11.3186 24.765C11.5519 24.541 11.8249 24.3683 12.1376 24.247C12.4502 24.121 12.7909 24.058 13.1596 24.058C13.5142 24.058 13.8479 24.1187 14.1606 24.24C14.4732 24.3567 14.7369 24.534 14.9516 24.772L14.6226 25.101C14.4219 24.8957 14.2002 24.7487 13.9576 24.66C13.7149 24.5667 13.4536 24.52 13.1736 24.52C12.8796 24.52 12.6066 24.5713 12.3546 24.674C12.1026 24.772 11.8832 24.9143 11.6966 25.101C11.5099 25.283 11.3629 25.4977 11.2556 25.745C11.1529 25.9877 11.1016 26.256 11.1016 26.55C11.1016 26.844 11.1529 27.1147 11.2556 27.362C11.3629 27.6047 11.5099 27.8193 11.6966 28.006C11.8832 28.188 12.1026 28.3303 12.3546 28.433C12.6066 28.531 12.8796 28.58 13.1736 28.58C13.4536 28.58 13.7149 28.5333 13.9576 28.44C14.2002 28.3467 14.4219 28.1973 14.6226 27.992L14.9516 28.321C14.7369 28.559 14.4732 28.7387 14.1606 28.86C13.8479 28.9813 13.5119 29.042 13.1526 29.042ZM16.5038 27.782L16.4828 27.152L19.4508 24.1H20.0458L17.8828 26.368L17.5888 26.683L16.5038 27.782ZM16.0558 29V24.1H16.5738V29H16.0558ZM19.5768 29L17.4628 26.564L17.8128 26.186L20.1928 29H19.5768ZM22.2808 29.042C21.9168 29.042 21.5668 28.9837 21.2308 28.867C20.8995 28.7457 20.6428 28.5917 20.4608 28.405L20.6638 28.006C20.8365 28.174 21.0675 28.3163 21.3568 28.433C21.6508 28.545 21.9588 28.601 22.2808 28.601C22.5888 28.601 22.8385 28.5637 23.0298 28.489C23.2258 28.4097 23.3682 28.3047 23.4568 28.174C23.5502 28.0433 23.5968 27.8987 23.5968 27.74C23.5968 27.5487 23.5408 27.3947 23.4288 27.278C23.3215 27.1613 23.1792 27.0703 23.0018 27.005C22.8245 26.935 22.6285 26.8743 22.4138 26.823C22.1992 26.7717 21.9845 26.718 21.7698 26.662C21.5552 26.6013 21.3568 26.522 21.1748 26.424C20.9975 26.326 20.8528 26.1977 20.7408 26.039C20.6335 25.8757 20.5798 25.6633 20.5798 25.402C20.5798 25.1593 20.6428 24.9377 20.7688 24.737C20.8995 24.5317 21.0978 24.3683 21.3638 24.247C21.6298 24.121 21.9705 24.058 22.3858 24.058C22.6612 24.058 22.9342 24.0977 23.2048 24.177C23.4755 24.2517 23.7088 24.3567 23.9048 24.492L23.7298 24.905C23.5198 24.765 23.2958 24.6623 23.0578 24.597C22.8245 24.5317 22.5982 24.499 22.3788 24.499C22.0848 24.499 21.8422 24.5387 21.6508 24.618C21.4595 24.6973 21.3172 24.8047 21.2238 24.94C21.1352 25.0707 21.0908 25.22 21.0908 25.388C21.0908 25.5793 21.1445 25.7333 21.2518 25.85C21.3638 25.9667 21.5085 26.0577 21.6858 26.123C21.8678 26.1883 22.0662 26.2467 22.2808 26.298C22.4955 26.3493 22.7078 26.4053 22.9178 26.466C23.1325 26.5267 23.3285 26.606 23.5058 26.704C23.6878 26.7973 23.8325 26.9233 23.9398 27.082C24.0518 27.2407 24.1078 27.4483 24.1078 27.705C24.1078 27.943 24.0425 28.1647 23.9118 28.37C23.7812 28.5707 23.5805 28.734 23.3098 28.86C23.0438 28.9813 22.7008 29.042 22.2808 29.042ZM25.2365 29V24.1H25.7545V29H25.2365ZM27.3488 29V24.1H29.3438C29.8664 24.1 30.3238 24.205 30.7158 24.415C31.1124 24.6203 31.4204 24.9073 31.6398 25.276C31.8591 25.6447 31.9688 26.0693 31.9688 26.55C31.9688 27.0307 31.8591 27.4553 31.6398 27.824C31.4204 28.1927 31.1124 28.482 30.7158 28.692C30.3238 28.8973 29.8664 29 29.3438 29H27.3488ZM27.8668 28.552H29.3158C29.7498 28.552 30.1254 28.468 30.4428 28.3C30.7648 28.1273 31.0144 27.8917 31.1918 27.593C31.3691 27.2897 31.4578 26.942 31.4578 26.55C31.4578 26.1533 31.3691 25.8057 31.1918 25.507C31.0144 25.2083 30.7648 24.975 30.4428 24.807C30.1254 24.6343 29.7498 24.548 29.3158 24.548H27.8668V28.552ZM33.594 26.291H36.184V26.732H33.594V26.291ZM33.65 28.552H36.597V29H33.132V24.1H36.492V24.548H33.65V28.552Z" fill="white"/>
</g>
</svg>
