<svg width="58" height="58" viewBox="0 0 58 58" fill="none" xmlns="http://www.w3.org/2000/svg">
<rect width="58" height="58" rx="6" fill="url(#paint0_linear_3474_2905)"/>
<path d="M38.25 31.1216H30.125V39.2466C30.125 39.6776 29.9538 40.0909 29.649 40.3956C29.3443 40.7004 28.931 40.8716 28.5 40.8716C28.069 40.8716 27.6557 40.7004 27.351 40.3956C27.0462 40.0909 26.875 39.6776 26.875 39.2466V31.1216H18.75C18.319 31.1216 17.9057 30.9504 17.601 30.6456C17.2962 30.3409 17.125 29.9276 17.125 29.4966C17.125 29.0656 17.2962 28.6523 17.601 28.3475C17.9057 28.0428 18.319 27.8716 18.75 27.8716H26.875V19.7466C26.875 19.3156 27.0462 18.9023 27.351 18.5975C27.6557 18.2928 28.069 18.1216 28.5 18.1216C28.931 18.1216 29.3443 18.2928 29.649 18.5975C29.9538 18.9023 30.125 19.3156 30.125 19.7466V27.8716H38.25C38.681 27.8716 39.0943 28.0428 39.399 28.3475C39.7038 28.6523 39.875 29.0656 39.875 29.4966C39.875 29.9276 39.7038 30.3409 39.399 30.6456C39.0943 30.9504 38.681 31.1216 38.25 31.1216Z" fill="white"/>
<defs>
<linearGradient id="paint0_linear_3474_2905" x1="29" y1="-19.5907" x2="27.4088" y2="116.592" gradientUnits="userSpaceOnUse">
<stop stop-color="#1D4D21"/>
<stop offset="0.239" stop-color="#0E2D1E"/>
<stop offset="0.485802" stop-color="#113C33"/>
<stop offset="0.770259" stop-color="#184C43"/>
<stop offset="1" stop-color="#1D5850"/>
</linearGradient>
</defs>
</svg>
