<svg xmlns="http://www.w3.org/2000/svg"  viewBox="0 0 10 8" fill="none">
  <g clip-path="url(#clip0_829_14258)">
    <path fill="currentColor" fill-rule="evenodd" d="M.624998 4.00032c0 .0663.032924.12989.091529.17677.058605.04689.138091.07323.220971.07323H8.30812l-1.96687 1.573c-.05868.04694-.09165.11061-.09165.177 0 .06638.03297.13005.09165.177.05868.04694.13826.07331.22125.07331.08298 0 .16257-.02637.22125-.07331l2.5-2c.0291-.02323.05219-.05082.06794-.08119.01576-.03037.02387-.06293.02387-.09581 0-.03289-.00811-.06545-.02387-.09582-.01575-.03037-.03884-.05796-.06794-.08118l-2.5-2c-.02906-.02325-.06355-.04169-.10151-.05427C6.64428 1.75647 6.60359 1.75 6.5625 1.75c-.08299 0-.16257.02637-.22125.07332-.05868.04694-.09165.11061-.09165.177 0 .06638.03297.13005.09165.177l1.96687 1.573H.937498c-.08288 0-.162366.02634-.220971.07322-.058605.04688-.091529.11047-.091529.17678Z" clip-rule="evenodd"/>
  </g>
  <defs>
    <clipPath id="clip0_829_14258">
      <path fill="#fff" d="M10 0v8H0V0z"/>
    </clipPath>
  </defs>
</svg>