<svg width="25" height="26" viewBox="0 0 25 26" fill="none" xmlns="http://www.w3.org/2000/svg">
<path d="M21.875 8.3125V22.375H7.8125V8.3125H21.875ZM21.875 6.75H7.8125C7.3981 6.75 7.00067 6.91462 6.70765 7.20765C6.41462 7.50067 6.25 7.8981 6.25 8.3125V22.375C6.25 22.7894 6.41462 23.1868 6.70765 23.4799C7.00067 23.7729 7.3981 23.9375 7.8125 23.9375H21.875C22.2894 23.9375 22.6868 23.7729 22.9799 23.4799C23.2729 23.1868 23.4375 22.7894 23.4375 22.375V8.3125C23.4375 7.8981 23.2729 7.50067 22.9799 7.20765C22.6868 6.91462 22.2894 6.75 21.875 6.75Z" fill="white"/>
<path d="M3.125 14.5625H1.5625V3.625C1.5625 3.2106 1.72712 2.81317 2.02015 2.52015C2.31317 2.22712 2.7106 2.0625 3.125 2.0625H14.0625V3.625H3.125V14.5625Z" fill="white"/>
</svg>
