<svg xmlns="http://www.w3.org/2000/svg" width="24" height="24" fill="none">
  <path fill="currentColor" d="M19 13v5c0 .55-.45 1-1 1H6c-.55 0-1-.45-1-1v-5c0-.55-.45-1-1-1s-1 .45-1 1v6c0 1.1.9 2 2 2h14c1.1 0 2-.9 2-2v-6c0-.55-.45-1-1-1s-1 .45-1 1Zm-6-.33 1.88-1.88c.0926-.0926.2025-.166.3235-.2161.1209-.0501.2506-.0759.3815-.0759.1309 0 .2606.0258.3815.0759.121.0501.2309.1235.3235.2161.0926.0926.166.2025.2161.3235.0501.1209.0759.2506.0759.3815 0 .1309-.0258.2606-.0759.3815-.0501.121-.1235.2309-.2161.3235l-3.59 3.59c-.0925.0927-.2024.1663-.3234.2164-.1209.0502-.2506.076-.3816.076s-.2607-.0258-.3816-.076c-.121-.0501-.2309-.1237-.3234-.2164L7.7 12.2c-.18698-.187-.29202-.4406-.29202-.705 0-.2644.10504-.518.29202-.705.18698-.187.44057-.292.705-.292.26443 0 .51802.105.705.292L11 12.67V4c0-.55.45-1 1-1s1 .45 1 1v8.67Z"/>
</svg>