<svg xmlns="http://www.w3.org/2000/svg" fill="none" width="32" height="32" viewBox="0 0 32 32">
  <path fill="currentColor" d="M14.92 3c-.347 0-.693.08-1.027.2L4.08 7.267a2.659 2.659 0 0 0-1.453 3.466L9.24 26.667a2.667 2.667 0 0 0 2.413 1.666c.347 0 .707-.04 1.054-.2l9.826-4.066a2.694 2.694 0 0 0 1.64-2.4A3.028 3.028 0 0 0 24 20.6L17.333 4.667A2.605 2.605 0 0 0 14.92 3Zm4.64 0 4.6 11.133V5.667A2.667 2.667 0 0 0 21.493 3m5.347 2.053v12.04l3.24-7.813a2.654 2.654 0 0 0-1.453-3.467M14.92 5.627l6.64 16.026-9.853 4.08L5.067 9.72"/>
</svg>