<svg width="25" height="26" viewBox="0 0 25 26" fill="none" xmlns="http://www.w3.org/2000/svg">
<g clip-path="url(#clip0_5195_6423)">
<path d="M12.5 0.5C19.4039 0.5 25 6.09609 25 13C25 19.9039 19.4039 25.5 12.5 25.5C5.59609 25.5 0 19.9039 0 13C0 6.09609 5.59609 0.5 12.5 0.5Z" fill="#7950DD"/>
<path d="M16.7757 10.1175C16.6128 10.0307 16.4311 9.98534 16.2466 9.98534C16.062 9.98534 15.8803 10.0307 15.7175 10.1175L13.3319 11.5283L11.6655 12.4544L9.27998 13.866C9.11712 13.9528 8.93541 13.9982 8.75088 13.9982C8.56634 13.9982 8.38463 13.9528 8.22177 13.866L6.32588 12.7626C6.16983 12.6727 6.03932 12.5444 5.94667 12.3899C5.85401 12.2354 5.80229 12.0599 5.79638 11.8798V9.67749C5.79302 9.49552 5.84086 9.31628 5.93444 9.16019C6.02803 9.00409 6.16359 8.87744 6.32568 8.79468L8.22177 7.73667C8.38451 7.64951 8.56627 7.60391 8.75088 7.60391C8.93549 7.60391 9.11724 7.64951 9.27998 7.73667L11.1759 8.79487C11.3319 8.88488 11.4624 9.01318 11.555 9.16766C11.6476 9.32213 11.6993 9.49767 11.7052 9.67768V11.0875L13.3319 10.1177V8.75132C13.3363 8.57025 13.2899 8.39157 13.198 8.23554C13.106 8.0795 12.9722 7.95235 12.8116 7.8685L9.32334 5.84077C9.1606 5.75361 8.97884 5.70801 8.79423 5.70801C8.60962 5.70801 8.42787 5.75361 8.26513 5.84077L4.73818 7.8685C4.5621 7.9369 4.41201 8.05897 4.30916 8.21741C4.20631 8.37586 4.15592 8.56264 4.16513 8.75132V12.8511C4.16256 13.0323 4.21079 13.2107 4.30438 13.3659C4.39796 13.5211 4.53315 13.6469 4.69463 13.7292L8.22177 15.7619C8.38463 15.8487 8.56634 15.8941 8.75088 15.8941C8.93541 15.8941 9.11712 15.8487 9.27998 15.7619L11.6655 14.3947L13.2968 13.425L15.6741 12.0623C15.837 11.9755 16.0187 11.9301 16.2032 11.9301C16.3878 11.9301 16.5695 11.9755 16.7323 12.0623L18.6282 13.1205C18.7842 13.2105 18.9146 13.3388 19.0071 13.4933C19.0996 13.6478 19.1512 13.8233 19.1569 14.0033V16.1638C19.1603 16.3456 19.1125 16.5247 19.0191 16.6807C18.9256 16.8366 18.7901 16.9631 18.6282 17.0458L16.7323 18.1474C16.5696 18.2346 16.3878 18.2802 16.2032 18.2802C16.0186 18.2802 15.8369 18.2346 15.6741 18.1474L13.7782 17.0892C13.6222 16.9994 13.4917 16.8713 13.3991 16.717C13.3064 16.5627 13.2547 16.3873 13.2487 16.2074V14.7914L11.6655 15.7167V17.1267C11.662 17.3086 11.7098 17.4879 11.8032 17.644C11.8967 17.8001 12.0322 17.9267 12.1942 18.0095L15.7214 20.0371C15.8843 20.1242 16.0661 20.1698 16.2509 20.1698C16.4356 20.1698 16.6175 20.1242 16.7804 20.0371L20.3073 18.0091C20.4623 17.9188 20.5918 17.7905 20.6836 17.6364C20.7755 17.4823 20.8266 17.3074 20.8323 17.1281V13.0265C20.8357 12.8446 20.7878 12.6655 20.6942 12.5095C20.6006 12.3535 20.4649 12.227 20.3028 12.1445L16.7757 10.1175Z" fill="white"/>
</g>
<defs>
<clipPath id="clip0_5195_6423">
<rect width="25" height="25" fill="white" transform="translate(0 0.5)"/>
</clipPath>
</defs>
</svg>
