<svg viewBox="0 0 28 28" fill="none" xmlns="http://www.w3.org/2000/svg">
<path d="M14.0013 24.2087C11.759 24.2056 9.60934 23.3134 8.02377 21.7279C6.43819 20.1423 5.54606 17.9927 5.54297 15.7503C5.54297 15.5183 5.63516 15.2957 5.79925 15.1316C5.96334 14.9675 6.1859 14.8753 6.41797 14.8753C6.65003 14.8753 6.87259 14.9675 7.03669 15.1316C7.20078 15.2957 7.29297 15.5183 7.29297 15.7503C7.29297 17.0771 7.68641 18.3741 8.42353 19.4773C9.16065 20.5805 10.2083 21.4403 11.4341 21.948C12.6599 22.4558 14.0087 22.5886 15.31 22.3298C16.6113 22.0709 17.8066 21.432 18.7448 20.4938C19.683 19.5557 20.3219 18.3603 20.5807 17.0591C20.8396 15.7578 20.7067 14.4089 20.199 13.1832C19.6913 11.9574 18.8314 10.9097 17.7283 10.1725C16.6251 9.43543 15.3281 9.04199 14.0013 9.04199H11.0846C10.8526 9.04199 10.63 8.94981 10.4659 8.78571C10.3018 8.62162 10.2096 8.39906 10.2096 8.16699C10.2096 7.93493 10.3018 7.71237 10.4659 7.54827C10.63 7.38418 10.8526 7.29199 11.0846 7.29199H14.0013C16.2446 7.29199 18.396 8.18314 19.9822 9.76938C21.5685 11.3556 22.4596 13.507 22.4596 15.7503C22.4596 17.9936 21.5685 20.145 19.9822 21.7313C18.396 23.3175 16.2446 24.2087 14.0013 24.2087Z" fill="currentColor"/>
<path d="M13.9992 12.5414C13.8843 12.5419 13.7704 12.5195 13.6642 12.4754C13.558 12.4313 13.4617 12.3665 13.3809 12.2847L9.8809 8.78469C9.71704 8.62063 9.625 8.39823 9.625 8.16636C9.625 7.93448 9.71704 7.71209 9.8809 7.54802L13.3809 4.04802C13.461 3.96206 13.5576 3.8931 13.6649 3.84528C13.7723 3.79746 13.8881 3.77174 14.0056 3.76967C14.1231 3.76759 14.2398 3.78921 14.3488 3.83321C14.4577 3.87722 14.5567 3.94272 14.6398 4.02581C14.7229 4.1089 14.7884 4.20787 14.8324 4.31683C14.8764 4.42578 14.898 4.54248 14.8959 4.65997C14.8938 4.77745 14.8681 4.89332 14.8203 5.00065C14.7725 5.10798 14.7035 5.20459 14.6176 5.28469L11.7359 8.16636L14.6176 11.048C14.7814 11.2121 14.8735 11.4345 14.8735 11.6664C14.8735 11.8982 14.7814 12.1206 14.6176 12.2847C14.5368 12.3665 14.4405 12.4313 14.3343 12.4754C14.2281 12.5195 14.1142 12.5419 13.9992 12.5414Z" fill="currentColor"/>
</svg>
