<svg xmlns="http://www.w3.org/2000/svg" fill="none" viewBox="0 0 20 20" width="20" height="20">
  <circle cx="10" cy="10" r="10" fill="url(#paint0_linear_455_13921_walletconnect)"/>
  <path fill="#fff" d="M5.775 7.297c2.334-2.273 6.116-2.273 8.452 0l.281.273a.284.284 0 0 1 0 .41l-.96.937a.152.152 0 0 1-.211 0l-.386-.375c-1.627-1.585-4.269-1.585-5.896 0l-.413.402a.152.152 0 0 1-.212 0l-.963-.936a.284.284 0 0 1 0-.411l.308-.3ZM16.214 9.23l.854.831a.284.284 0 0 1 0 .411l-3.855 3.755a.304.304 0 0 1-.422 0l-2.738-2.665a.079.079 0 0 0-.106 0l-2.735 2.665a.304.304 0 0 1-.422 0l-3.858-3.752a.284.284 0 0 1 0-.411l.854-.831a.304.304 0 0 1 .423 0l2.738 2.665c.03.027.075.027.105 0l2.735-2.665a.304.304 0 0 1 .423 0l2.738 2.665c.03.027.075.027.105 0l2.738-2.665a.3.3 0 0 1 .423-.003Z"/>
  <defs>
    <linearGradient id="paint0_linear_455_13921_walletconnect" x1="17.962" x2="1.564" y1="15.355" y2="4.502" gradientUnits="userSpaceOnUse">
      <stop stop-color="#2E73F6"/>
      <stop offset="1" stop-color="#6395E6"/>
    </linearGradient>
  </defs>
</svg>