<svg width="42" height="42" viewBox="0 0 42 42" fill="none" xmlns="http://www.w3.org/2000/svg">
<g clip-path="url(#clip0_4007_203)">
<g clip-path="url(#clip1_4007_203)">
<path d="M38.3793 21V40.5517H3.62071V21.1738C3.60711 21.9459 3.82942 22.7038 4.25795 23.3462C5.62657 25.2724 7.96553 23.8966 7.96553 21.1738C7.96553 22.6221 8.76933 24.2297 10.1379 24.2297C11.34 24.2297 12.3104 22.8683 12.3104 21.1738C12.2968 21.9459 12.5191 22.7038 12.9476 23.3462C14.3162 25.2724 16.6552 23.8966 16.6552 21.1738C16.6552 22.6221 17.459 24.2297 18.8276 24.2297C20.0297 24.2297 21 22.8683 21 21.1738C20.9864 21.9459 21.2087 22.7038 21.6373 23.3462C23.0059 25.2724 25.3448 23.8966 25.3448 21.1738C25.3448 22.6221 26.1486 24.2297 27.5173 24.2297C28.7193 24.2297 29.6897 22.8683 29.6897 21.1738C29.6761 21.9459 29.8984 22.7038 30.3269 23.3462C31.6955 25.2724 34.0345 23.8966 34.0345 21.1738C34.0345 22.6872 34.9324 24.3745 36.3662 24.2224C37.5248 24.1138 38.3793 22.6293 38.3793 21Z" fill="#F0C419"/>
<path d="M36.207 21V40.5517H5.79321V21.1738C5.77907 21.935 5.97178 22.6859 6.35079 23.3462C7.55286 25.2797 9.59493 23.8748 9.59493 21.1738C9.5808 21.935 9.77351 22.6859 10.1525 23.3462C11.3546 25.2797 13.3967 23.8748 13.3967 21.1738C13.3825 21.935 13.5752 22.6859 13.9542 23.3462C15.1563 25.2797 17.1984 23.8748 17.1984 21.1738C17.1842 21.935 17.377 22.6859 17.756 23.3462C18.958 25.2797 21.0001 23.8748 21.0001 21.1738C20.986 21.935 21.1787 22.6859 21.5577 23.3462C22.7598 25.2797 24.8018 23.8748 24.8018 21.1738C24.7877 21.935 24.9804 22.6859 25.3594 23.3462C26.5615 25.2797 28.6036 23.8748 28.6036 21.1738C28.5894 21.935 28.7821 22.6859 29.1611 23.3462C30.3632 25.2797 32.4053 23.8748 32.4053 21.1738C32.3911 21.935 32.5839 22.6859 32.9629 23.3462C34.1867 25.3448 36.207 23.8241 36.207 21Z" fill="#F3D55B"/>
<path d="M21.0002 10.1378C20.8081 10.1378 20.624 10.0615 20.4882 9.92568C20.3524 9.78988 20.2761 9.60569 20.2761 9.41364V7.24123C20.2761 7.04917 20.3524 6.86499 20.4882 6.72919C20.624 6.59338 20.8081 6.51709 21.0002 6.51709C21.1923 6.51709 21.3764 6.59338 21.5122 6.72919C21.648 6.86499 21.7243 7.04917 21.7243 7.24123V9.41364C21.7243 9.60569 21.648 9.78988 21.5122 9.92568C21.3764 10.0615 21.1923 10.1378 21.0002 10.1378ZM13.0347 10.1378C12.8426 10.1378 12.6584 10.0615 12.5226 9.92568C12.3868 9.78988 12.3105 9.60569 12.3105 9.41364V7.24123C12.3105 7.04917 12.3868 6.86499 12.5226 6.72919C12.6584 6.59338 12.8426 6.51709 13.0347 6.51709C13.2267 6.51709 13.4109 6.59338 13.5467 6.72919C13.6825 6.86499 13.7588 7.04917 13.7588 7.24123V9.41364C13.7588 9.60569 13.6825 9.78988 13.5467 9.92568C13.4109 10.0615 13.2267 10.1378 13.0347 10.1378ZM28.9657 10.1378C28.7737 10.1378 28.5895 10.0615 28.4537 9.92568C28.3179 9.78988 28.2416 9.60569 28.2416 9.41364V7.24123C28.2416 7.04917 28.3179 6.86499 28.4537 6.72919C28.5895 6.59338 28.7737 6.51709 28.9657 6.51709C29.1578 6.51709 29.342 6.59338 29.4778 6.72919C29.6136 6.86499 29.6899 7.04917 29.6899 7.24123V9.41364C29.6899 9.60569 29.6136 9.78988 29.4778 9.92568C29.342 10.0615 29.1578 10.1378 28.9657 10.1378Z" fill="#A56A43"/>
<path d="M40.5517 38.3794H1.44828C0.648415 38.3794 0 39.0278 0 39.8277V40.5518C0 41.3517 0.648415 42.0001 1.44828 42.0001H40.5517C41.3516 42.0001 42 41.3517 42 40.5518V39.8277C42 39.0278 41.3516 38.3794 40.5517 38.3794Z" fill="#2980BA"/>
<path d="M39.1034 38.3794H2.89652C2.09666 38.3794 1.44824 39.0278 1.44824 39.8277V40.5518C1.44824 41.3517 2.09666 42.0001 2.89652 42.0001H39.1034C39.9033 42.0001 40.5517 41.3517 40.5517 40.5518V39.8277C40.5517 39.0278 39.9033 38.3794 39.1034 38.3794Z" fill="#3B97D3"/>
<path d="M20.2761 9.41357H21.7244C22.1085 9.41357 22.4769 9.56616 22.7485 9.83776C23.0201 10.1094 23.1726 10.4777 23.1726 10.8619V15.9308H18.8278V10.8619C18.8278 10.4777 18.9804 10.1094 19.252 9.83776C19.5236 9.56616 19.892 9.41357 20.2761 9.41357ZM12.3106 9.41357H13.7589C14.143 9.41357 14.5113 9.56616 14.7829 9.83776C15.0545 10.1094 15.2071 10.4777 15.2071 10.8619V15.9308H10.8623V10.8619C10.8623 10.4777 11.0149 10.1094 11.2865 9.83776C11.5581 9.56616 11.9265 9.41357 12.3106 9.41357ZM28.2416 9.41357H29.6899C30.074 9.41357 30.4424 9.56616 30.714 9.83776C30.9856 10.1094 31.1382 10.4777 31.1382 10.8619V15.9308H26.7933V10.8619C26.7933 10.4777 26.9459 10.1094 27.2175 9.83776C27.4891 9.56616 27.8575 9.41357 28.2416 9.41357Z" fill="#F9EAB0"/>
<path d="M38.3792 18.1036V24.4977C38.3933 25.0632 38.194 25.6134 37.8211 26.0387C37.4481 26.464 36.9287 26.7334 36.3661 26.7932C36.0677 26.8152 35.768 26.7752 35.4858 26.6759C35.2035 26.5766 34.9448 26.4201 34.7259 26.2161C34.507 26.0122 34.3326 25.7652 34.2136 25.4907C34.0946 25.2161 34.0336 24.92 34.0344 24.6208C34.0344 25.197 33.8055 25.7495 33.3981 26.1569C32.9907 26.5643 32.4381 26.7932 31.862 26.7932C31.2858 26.7932 30.7333 26.5643 30.3259 26.1569C29.9184 25.7495 29.6896 25.197 29.6896 24.6208C29.6896 25.197 29.4607 25.7495 29.0533 26.1569C28.6459 26.5643 28.0933 26.7932 27.5172 26.7932C26.941 26.7932 26.3884 26.5643 25.981 26.1569C25.5736 25.7495 25.3447 25.197 25.3447 24.6208C25.3447 25.197 25.1159 25.7495 24.7085 26.1569C24.3011 26.5643 23.7485 26.7932 23.1723 26.7932C22.5962 26.7932 22.0436 26.5643 21.6362 26.1569C21.2288 25.7495 20.9999 25.197 20.9999 24.6208C20.9999 25.197 20.771 25.7495 20.3636 26.1569C19.9562 26.5643 19.4037 26.7932 18.8275 26.7932C18.2513 26.7932 17.6988 26.5643 17.2914 26.1569C16.884 25.7495 16.6551 25.197 16.6551 24.6208C16.6551 25.197 16.4262 25.7495 16.0188 26.1569C15.6114 26.5643 15.0588 26.7932 14.4827 26.7932C13.9065 26.7932 13.354 26.5643 12.9465 26.1569C12.5391 25.7495 12.3103 25.197 12.3103 24.6208C12.3103 25.197 12.0814 25.7495 11.674 26.1569C11.2666 26.5643 10.714 26.7932 10.1378 26.7932C9.56169 26.7932 9.00912 26.5643 8.60172 26.1569C8.19431 25.7495 7.96543 25.197 7.96543 24.6208C7.96543 25.197 7.73655 25.7495 7.32915 26.1569C6.92174 26.5643 6.36918 26.7932 5.79302 26.7932C5.21686 26.7932 4.6643 26.5643 4.25689 26.1569C3.84948 25.7495 3.62061 25.197 3.62061 24.6208V18.1036C3.62061 17.5274 3.84948 16.9748 4.25689 16.5674C4.6643 16.16 5.21686 15.9312 5.79302 15.9312H36.2068C36.783 15.9312 37.3355 16.16 37.7429 16.5674C38.1503 16.9748 38.3792 17.5274 38.3792 18.1036Z" fill="#FF5364"/>
<path d="M7.96538 19.5518H6.51711C6.32505 19.5518 6.14087 19.4755 6.00506 19.3397C5.86926 19.2039 5.79297 19.0197 5.79297 18.8277C5.79297 18.6356 5.86926 18.4514 6.00506 18.3156C6.14087 18.1798 6.32505 18.1035 6.51711 18.1035H7.96538C8.15744 18.1035 8.34162 18.1798 8.47743 18.3156C8.61323 18.4514 8.68952 18.6356 8.68952 18.8277C8.68952 19.0197 8.61323 19.2039 8.47743 19.3397C8.34162 19.4755 8.15744 19.5518 7.96538 19.5518ZM20.9999 19.5518H10.8619C10.6699 19.5518 10.4857 19.4755 10.3499 19.3397C10.2141 19.2039 10.1378 19.0197 10.1378 18.8277C10.1378 18.6356 10.2141 18.4514 10.3499 18.3156C10.4857 18.1798 10.6699 18.1035 10.8619 18.1035H20.9999C21.1919 18.1035 21.3761 18.1798 21.5119 18.3156C21.6477 18.4514 21.724 18.6356 21.724 18.8277C21.724 19.0197 21.6477 19.2039 21.5119 19.3397C21.3761 19.4755 21.1919 19.5518 20.9999 19.5518Z" fill="white"/>
<path d="M23.1726 5.06897C23.1726 5.64513 22.9438 6.19769 22.5364 6.60509C22.129 7.0125 21.5764 7.24138 21.0002 7.24138C20.4241 7.24138 19.8715 7.0125 19.4641 6.60509C19.0567 6.19769 18.8278 5.64513 18.8278 5.06897C18.8278 3.8669 19.7982 0 21.0002 0C22.2023 0 23.1726 3.8669 23.1726 5.06897ZM15.2071 5.06897C15.2071 5.64513 14.9783 6.19769 14.5708 6.60509C14.1634 7.0125 13.6109 7.24138 13.0347 7.24138C12.4586 7.24138 11.906 7.0125 11.4986 6.60509C11.0912 6.19769 10.8623 5.64513 10.8623 5.06897C10.8623 3.8669 11.8326 0 13.0347 0C14.2368 0 15.2071 3.8669 15.2071 5.06897ZM31.1382 5.06897C31.1382 5.64513 30.9093 6.19769 30.5019 6.60509C30.0945 7.0125 29.5419 7.24138 28.9658 7.24138C28.3896 7.24138 27.837 7.0125 27.4296 6.60509C27.0222 6.19769 26.7933 5.64513 26.7933 5.06897C26.7933 3.8669 27.7637 0 28.9658 0C30.1678 0 31.1382 3.8669 31.1382 5.06897Z" fill="#F29C1F"/>
</g>
</g>
<defs>
<clipPath id="clip0_4007_203">
<rect width="42" height="42" fill="white"/>
</clipPath>
<clipPath id="clip1_4007_203">
<rect width="42" height="42" fill="white"/>
</clipPath>
</defs>
</svg>
