<svg width="42" height="42" fill="none" xmlns="http://www.w3.org/2000/svg"><g clip-path="url(#a)"><g clip-path="url(#b)"><path d="M42 10.695v3.063l-3.592 4.012c-.905.645-2.093 1.441-3.07.913l-6.373-5.649 11.13-3.707A1.449 1.449 0 0 1 42 10.695Zm-16.568 9.4-.087.18-7.93 2.644a4.264 4.264 0 0 0-1.375.76l-7.35 6.01 10.74 9.414c.74.478 6.29-.562 7.122-.845l9.414-4.827c.869-.29 2.607-1.665 2.896-2.534l.241-3.38c.623-1.875-.918-2.172-2.896-2.172l-2-1.656m-4.698.75-2.528-2.527 2.528 2.527Zm1.73 1.413h-.007.007ZM42 36.93V42H27.517l2.462-3.483a2.951 2.951 0 0 1 1.297-1.297l4.51-2.252c1.116-.557 3.911-3.237 4.795-2.353L42 36.93ZM21.724 42H0v-.413a3.613 3.613 0 0 1 2.324-3.375l7.09-2.73L21.724 42Z" fill="#35495E"/><path d="M42 13.758v23.173l-1.42-1.42a2.896 2.896 0 0 0-3.345-.543l-4.511 2.252a2.951 2.951 0 0 0-1.297 1.297L29.69 42H18.828l-9.413-6.517-.725-5.794 11.145 7.213a2.87 2.87 0 0 0 2.484.311l12.513-4.17a2.885 2.885 0 0 0 1.832-1.833l.449-1.332a2.897 2.897 0 0 0-2.752-3.81h-.666c.05-.057.101-.108.152-.159a4.277 4.277 0 0 1 2.303-1.202.073.073 0 0 0 .05-.069.072.072 0 0 0-.05-.068 4.239 4.239 0 0 1-2.303-1.21 4.288 4.288 0 0 1-1.21-2.302.073.073 0 0 0-.137 0 4.335 4.335 0 0 1-2.99 3.381l-4.164-4.163c.695-1.876 2.288-2.057 1.846-3.7l1.774-3.542 6.373 3.476a2.904 2.904 0 0 0 3.07-.188L42 13.758Z" fill="#2C3E50"/><path d="m20.348 4.615 1.533-1.533a1.448 1.448 0 0 1 2.048 0l.507.507a1.448 1.448 0 0 1 0 2.048l-1.534 1.532-5.753 5.757L3.085 26.99a1.81 1.81 0 0 1-2.558-2.557l14.064-14.065 5.757-5.753Z" fill="#CB8252"/><path d="M26.982 21.912a7.018 7.018 0 0 1-.246.601 16.946 16.946 0 0 0-1.303-2.418c-1.87-2.798-4-5.412-6.366-7.806l-.319-4.098 3.513.897s3.794 3.164 4.931 7.488a8.637 8.637 0 0 1-.21 5.336Z" fill="#95A5A5"/><path d="M36.15 24.707a4.278 4.278 0 0 0-2.303 1.202c-.05.051-.102.102-.152.16a4.287 4.287 0 0 0-1.057 2.143.072.072 0 0 1-.138 0 4.28 4.28 0 0 0-1.202-2.303l-.058-.058h-.007a4.286 4.286 0 0 0-2.238-1.144.072.072 0 0 1-.05-.069.072.072 0 0 1 .05-.068c.175-.03.347-.073.514-.13a4.334 4.334 0 0 0 2.99-3.382.072.072 0 0 1 .07-.05.072.072 0 0 1 .069.05 4.288 4.288 0 0 0 1.209 2.302 4.24 4.24 0 0 0 2.303 1.21.072.072 0 0 1 .05.069.072.072 0 0 1-.05.068Z" fill="#F9EAB0"/><path d="M28.183 29.052a4.278 4.278 0 0 0-2.303 1.202 4.34 4.34 0 0 0-1.21 2.303.072.072 0 0 1-.11.036.073.073 0 0 1-.027-.036 4.279 4.279 0 0 0-1.202-2.303 4.329 4.329 0 0 0-2.303-1.202.073.073 0 0 1 0-.138 4.345 4.345 0 0 0 3.505-3.512.073.073 0 0 1 .138 0 4.288 4.288 0 0 0 1.209 2.303 4.24 4.24 0 0 0 2.303 1.21.073.073 0 0 1 0 .137Z" fill="#F3D55B"/><path d="M5.002.78C9.477 2.696 15.23 8.45 15.23 8.45l3.517.32-.32-3.516S12.034-2.417 5.002.78Z" fill="#95A5A5"/><path d="m23.029 7.298-2.812-2.811a.724.724 0 0 0-1.024 0l-4.73 4.729a.724.724 0 0 0 0 1.024l2.812 2.812a.724.724 0 0 0 1.024 0l4.73-4.73a.724.724 0 0 0 0-1.024Z" fill="#7F8C8D"/></g></g><defs><clipPath id="a"><path fill="#fff" d="M0 0h42v42H0z"/></clipPath><clipPath id="b"><path fill="#fff" d="M0 0h42v42H0z"/></clipPath></defs></svg>