<svg width="42" height="42" viewBox="0 0 42 42" fill="none" xmlns="http://www.w3.org/2000/svg">
<g clip-path="url(#clip0_4007_891)">
<g clip-path="url(#clip1_4007_891)">
<path d="M14.1924 5.79297H27.8221V7.24124H14.1924V5.79297Z" fill="#F0C419"/>
<path d="M13.0347 2.89648H28.9802V4.34476H13.0347V2.89648ZM15.1919 16.6551H26.8309V18.1034H15.1919V16.6551Z" fill="#955BA5"/>
<path d="M13.7588 20.2754H28.256V21.7237H13.7588V20.2754Z" fill="#F0C419"/>
<path d="M14.4829 23.8965H27.5246V25.3448H14.4829V23.8965Z" fill="#955BA5"/>
<path d="M15.4307 34.7588H26.5846V36.2071H15.4307V34.7588Z" fill="#F0C419"/>
<path d="M14.4829 37.6553H27.5319V39.1035H14.4829V37.6553Z" fill="#955BA5"/>
<path d="M21.0147 31.9346H21.0002C18.3571 32.7094 16.9016 34.0056 16.1051 35.4829C15.646 36.3867 15.3634 37.3698 15.2723 38.3794C15.2256 38.8608 15.2039 39.3442 15.2071 39.8277C15.2071 40.4039 14.9783 40.9564 14.5708 41.3638C14.1634 41.7712 13.6109 42.0001 13.0347 42.0001C12.4586 42.0001 11.906 41.7712 11.4986 41.3638C11.0912 40.9564 10.8623 40.4039 10.8623 39.8277C10.8623 34.6791 12.9623 31.5725 15.6126 29.7188L21.0147 31.9346Z" fill="#2FA8CC"/>
<path d="M21.0002 10.0655H21.0146C23.6577 9.29069 25.1133 7.99448 25.9098 6.51724C26.3689 5.6134 26.6515 4.63034 26.7426 3.62069C26.7889 3.13914 26.8114 2.65614 26.8077 2.17241C26.8077 1.59625 27.0366 1.04369 27.444 0.636285C27.8514 0.228879 28.404 0 28.9802 0C29.5563 0 30.1089 0.228879 30.5163 0.636285C30.9237 1.04369 31.1526 1.59625 31.1526 2.17241C31.1526 7.32103 29.0526 10.4276 26.4022 12.2814L21.0002 10.0655ZM21.0074 14.5624C19.1983 14.9797 17.571 15.9672 16.3657 17.3793C15.579 18.3378 15.1695 19.5508 15.2143 20.79C15.2143 20.8552 15.2215 20.9276 15.2215 21C15.2208 21.0797 15.2157 21.1593 15.2071 21.239C15.1695 22.4683 15.5786 23.6696 16.3584 24.6207C17.5689 26.0304 19.1975 27.0172 21.0074 27.4376C21.1812 27.4883 21.355 27.539 21.5433 27.5824C23.2812 27.9894 24.9279 28.7135 26.4022 29.7186C29.0526 31.5724 31.1526 34.679 31.1526 39.8276C31.1526 40.4037 30.9237 40.9563 30.5163 41.3637C30.1089 41.7711 29.5563 42 28.9802 42C28.404 42 27.8514 41.7711 27.444 41.3637C27.0366 40.9563 26.8077 40.4037 26.8077 39.8276C26.811 39.344 26.7893 38.8606 26.7426 38.3793C26.6515 37.3697 26.3689 36.3866 25.9098 35.4828C25.1133 34.0055 23.6577 32.7093 21.0146 31.9345H21.0002C20.8336 31.8838 20.6598 31.8403 20.486 31.7969C18.7548 31.3875 17.1065 30.6846 15.6126 29.7186C14.126 28.8099 12.905 27.5256 12.0723 25.9951C11.2397 24.4646 10.8248 22.7418 10.8695 21C10.8248 19.2582 11.2397 17.5354 12.0723 16.0049C12.905 14.4744 14.126 13.1901 15.6126 12.2814L21.0074 14.5624Z" fill="#67B9CC"/>
<path d="M21.0076 14.5623C20.8338 14.5116 20.66 14.4609 20.4718 14.4175C18.7345 14.0103 17.0873 13.2861 15.6128 12.2812L21.0076 14.5623Z" fill="#67B9CC"/>
<path d="M31.1454 21C31.1901 22.7418 30.7752 24.4646 29.9426 25.9951C29.1099 27.5256 27.8889 28.8099 26.4023 29.7186C24.9278 28.7138 23.2806 27.9896 21.5433 27.5824C21.3551 27.539 21.1813 27.4883 21.0075 27.4376C22.8166 27.0203 24.4438 26.0328 25.6492 24.6207C26.4359 23.6622 26.8454 22.4492 26.8006 21.21C26.8006 21.1448 26.7933 21.0724 26.7933 21C26.7941 20.9203 26.7991 20.8407 26.8078 20.761C26.8453 19.5317 26.4363 18.3304 25.6564 17.3793C24.446 15.9696 22.8174 14.9828 21.0075 14.5624C20.8337 14.5117 20.6599 14.461 20.4716 14.4176C18.7344 14.0104 17.0872 13.2862 15.6126 12.2814C12.9623 10.4276 10.8623 7.32103 10.8623 2.17241C10.8623 1.59625 11.0912 1.04369 11.4986 0.636285C11.906 0.228879 12.4586 0 13.0347 0C13.6109 0 14.1634 0.228879 14.5708 0.636285C14.9783 1.04369 15.2071 1.59625 15.2071 2.17241C15.2035 2.65614 15.226 3.13914 15.2723 3.62069C15.3634 4.63034 15.646 5.6134 16.1051 6.51724C16.9016 7.99448 18.3571 9.29069 21.0002 10.0655H21.0147C21.1813 10.1162 21.3551 10.1597 21.5289 10.2031C23.2601 10.6125 24.9084 11.3154 26.4023 12.2814C27.8889 13.1901 29.1099 14.4744 29.9426 16.0049C30.7752 17.5354 31.1901 19.2582 31.1454 21Z" fill="#2FA8CC"/>
</g>
</g>
<defs>
<clipPath id="clip0_4007_891">
<rect width="42" height="42" fill="white"/>
</clipPath>
<clipPath id="clip1_4007_891">
<rect width="42" height="42" fill="white"/>
</clipPath>
</defs>
</svg>
