<svg width="42" height="42" viewBox="0 0 42 42" fill="none" xmlns="http://www.w3.org/2000/svg">
<g clip-path="url(#clip0_4007_404)">
<path d="M21 0C9.40242 0 0.000488281 9.40221 0.000488281 20.9998C0.000488281 32.5971 9.40242 42 21 42C32.5976 42 42.0002 32.5971 42.0002 20.9998C42.0002 9.40193 32.5976 0 21 0ZM21.064 30.9071V30.9068H11.9656C11.9656 24.3469 17.7269 24.3485 19.0054 22.6332L19.1517 21.851C17.3555 20.9407 16.0875 18.746 16.0875 16.1793C16.0875 12.7977 18.2872 10.0559 21 10.0559C23.7128 10.0559 25.9125 12.7977 25.9125 16.1793C25.9125 18.7242 24.6671 20.9051 22.8948 21.8299L23.0614 22.7187C24.4641 24.3509 30.0337 24.4573 30.0337 30.9071H21.064Z" fill="#1ADCE2"/>
</g>
<defs>
<clipPath id="clip0_4007_404">
<rect width="42" height="42" fill="white"/>
</clipPath>
</defs>
</svg>
