<svg width="42" height="42" viewBox="0 0 42 42" fill="none" xmlns="http://www.w3.org/2000/svg">
<g clip-path="url(#clip0_4007_882)">
<g clip-path="url(#clip1_4007_882)">
<path d="M22.3855 1.61751L27.4339 12.3331C27.5432 12.5693 27.7089 12.7749 27.9165 12.9319C28.124 13.0889 28.3669 13.1924 28.6239 13.2333L39.9492 14.9574C40.2438 15.0108 40.5183 15.1435 40.7431 15.3413C40.9679 15.539 41.1345 15.7944 41.225 16.0798C41.3155 16.3652 41.3265 16.6698 41.2567 16.961C41.187 17.2522 41.0391 17.5188 40.8291 17.7322L32.6069 26.128C32.4255 26.3153 32.2906 26.5424 32.2129 26.7913C32.1352 27.0401 32.117 27.3037 32.1596 27.5609L34.0972 39.3909C34.1543 39.6851 34.1271 39.9895 34.0189 40.2689C33.9106 40.5484 33.7256 40.7915 33.4851 40.9705C33.2447 41.1494 32.9586 41.2568 32.6598 41.2802C32.3611 41.3037 32.0617 41.2423 31.7963 41.1031L21.7086 35.5486C21.4811 35.4229 21.2255 35.357 20.9656 35.357C20.7057 35.357 20.45 35.4229 20.2225 35.5486L10.1341 41.1045C9.8687 41.2437 9.56938 41.3051 9.2706 41.2816C8.97182 41.2582 8.68575 41.1508 8.44532 40.9719C8.20488 40.793 8.01987 40.5498 7.91158 40.2703C7.80329 39.9909 7.77613 39.6865 7.83322 39.3923L9.77082 27.5623C9.81347 27.3051 9.79522 27.0415 9.71754 26.7927C9.63985 26.5438 9.5049 26.3167 9.32352 26.1294L1.10132 17.7322C0.891317 17.5188 0.743483 17.2522 0.673726 16.961C0.603969 16.6698 0.614932 16.3652 0.705433 16.0798C0.795935 15.7944 0.962549 15.539 1.18735 15.3413C1.41214 15.1435 1.68661 15.0108 1.98122 14.9574L13.3065 13.2333C13.5635 13.1924 13.8065 13.0889 14.014 12.9319C14.2215 12.7749 14.3872 12.5693 14.4965 12.3331L19.5449 1.61751C19.6683 1.34414 19.8679 1.11218 20.1198 0.949461C20.3718 0.786747 20.6653 0.700195 20.9652 0.700195C21.2651 0.700195 21.5587 0.786747 21.8106 0.949461C22.0625 1.11218 22.2622 1.34414 22.3855 1.61751Z" fill="#F0C419"/>
<path d="M18.2003 21C18.0146 21 17.8366 20.9263 17.7053 20.795C17.574 20.6637 17.5003 20.4857 17.5003 20.3C17.5003 19.9287 17.3528 19.5726 17.0902 19.3101C16.8277 19.0475 16.4716 18.9 16.1003 18.9C15.729 18.9 15.3729 19.0475 15.1103 19.3101C14.8478 19.5726 14.7003 19.9287 14.7003 20.3C14.7003 20.4857 14.6265 20.6637 14.4953 20.795C14.364 20.9263 14.1859 21 14.0003 21C13.8146 21 13.6366 20.9263 13.5053 20.795C13.374 20.6637 13.3003 20.4857 13.3003 20.3C13.3003 19.5574 13.5953 18.8452 14.1204 18.3201C14.6455 17.795 15.3577 17.5 16.1003 17.5C16.8429 17.5 17.5551 17.795 18.0802 18.3201C18.6053 18.8452 18.9003 19.5574 18.9003 20.3C18.9003 20.4857 18.8265 20.6637 18.6953 20.795C18.564 20.9263 18.3859 21 18.2003 21ZM28.0003 21C27.8146 21 27.6366 20.9263 27.5053 20.795C27.374 20.6637 27.3003 20.4857 27.3003 20.3C27.3003 19.9287 27.1528 19.5726 26.8902 19.3101C26.6277 19.0475 26.2716 18.9 25.9003 18.9C25.529 18.9 25.1729 19.0475 24.9103 19.3101C24.6478 19.5726 24.5003 19.9287 24.5003 20.3C24.5003 20.4857 24.4265 20.6637 24.2953 20.795C24.164 20.9263 23.9859 21 23.8003 21C23.6146 21 23.4366 20.9263 23.3053 20.795C23.174 20.6637 23.1003 20.4857 23.1003 20.3C23.1003 19.5574 23.3953 18.8452 23.9204 18.3201C24.4455 17.795 25.1577 17.5 25.9003 17.5C26.6429 17.5 27.3551 17.795 27.8802 18.3201C28.4053 18.8452 28.7003 19.5574 28.7003 20.3C28.7003 20.4857 28.6265 20.6637 28.4953 20.795C28.364 20.9263 28.1859 21 28.0003 21Z" fill="#35495E"/>
<path d="M21.0003 30.1C25.4747 30.1 27.8309 26.5692 28.82 24.5224C28.8763 24.4013 28.8968 24.2667 28.8791 24.1344C28.8613 24.0021 28.8061 23.8776 28.72 23.7756C28.6338 23.6736 28.5203 23.5984 28.3928 23.5588C28.2653 23.5192 28.1291 23.5169 28.0003 23.5522C25.7201 24.1806 23.3656 24.4994 21.0003 24.5C18.6351 24.4994 16.2806 24.1806 14.0003 23.5522C13.8716 23.5171 13.7356 23.5195 13.6082 23.5592C13.4808 23.5988 13.3674 23.6741 13.2813 23.776C13.1953 23.878 13.1401 24.0024 13.1224 24.1346C13.1047 24.2669 13.1251 24.4014 13.1813 24.5224C14.1697 26.5692 16.5259 30.1 21.0003 30.1Z" fill="#ECF0F1"/>
</g>
</g>
<defs>
<clipPath id="clip0_4007_882">
<rect width="42" height="42" fill="white"/>
</clipPath>
<clipPath id="clip1_4007_882">
<rect width="42" height="42" fill="white"/>
</clipPath>
</defs>
</svg>