<svg width="42" height="42" viewBox="0 0 42 42" fill="none" xmlns="http://www.w3.org/2000/svg">
<g clip-path="url(#clip0_4007_814)">
<g clip-path="url(#clip1_4007_814)">
<g clip-path="url(#clip2_4007_814)">
<g clip-path="url(#clip3_4007_814)">
<path d="M36.2068 11.1387V19.8283H5.87198C3.82992 19.8283 2.17236 17.8818 2.17236 15.4835C2.17236 13.0852 3.82992 11.1387 5.87198 11.1387H36.2068Z" fill="#F5EFCA"/>
<path d="M37.6552 20.552C37.654 20.9358 37.5011 21.3035 37.2297 21.5748C36.9584 21.8462 36.5907 21.9992 36.2069 22.0003H6.51724C4.78876 22.0003 3.13108 21.3137 1.90886 20.0914C0.686636 18.8692 0 17.2115 0 15.4831C0 13.7546 0.686636 12.0969 1.90886 10.8747C3.13108 9.65246 4.78876 8.96582 6.51724 8.96582H36.2069C36.591 8.96582 36.9594 9.11841 37.231 9.39001C37.5026 9.66162 37.6552 10.03 37.6552 10.4141C37.6552 10.7982 37.5026 11.1666 37.231 11.4382C36.9594 11.7098 36.591 11.8624 36.2069 11.8624H6.51724C5.55697 11.8624 4.63604 12.2438 3.95703 12.9228C3.27802 13.6019 2.89655 14.5228 2.89655 15.4831C2.89655 16.4433 3.27802 17.3643 3.95703 18.0433C4.63604 18.7223 5.55697 19.1038 6.51724 19.1038H36.2069C36.5907 19.1049 36.9584 19.2579 37.2297 19.5292C37.5011 19.8006 37.654 20.1683 37.6552 20.552Z" fill="#F29C1F"/>
<path d="M40.5517 22H4.34476C3.5449 22 2.89648 22.6484 2.89648 23.4483V30.6897C2.89648 31.4895 3.5449 32.1379 4.34476 32.1379H40.5517C41.3515 32.1379 41.9999 31.4895 41.9999 30.6897V23.4483C41.9999 22.6484 41.3515 22 40.5517 22Z" fill="#7D6599"/>
<path d="M37.6552 32.1387H1.44828C0.648415 32.1387 0 32.7871 0 33.5869V40.8283C0 41.6282 0.648415 42.2766 1.44828 42.2766H37.6552C38.455 42.2766 39.1035 41.6282 39.1035 40.8283V33.5869C39.1035 32.7871 38.455 32.1387 37.6552 32.1387Z" fill="#E64C3C"/>
<path d="M37.6552 1.72461H1.44828C0.648415 1.72461 0 2.37302 0 3.17289V7.51771C0 8.31757 0.648415 8.96599 1.44828 8.96599H37.6552C38.455 8.96599 39.1035 8.31757 39.1035 7.51771V3.17289C39.1035 2.37302 38.455 1.72461 37.6552 1.72461Z" fill="#3B97D3"/>
<path d="M5.79297 1.72461H8.68952V8.96599H5.79297V1.72461ZM30.4137 1.72461H33.3102V8.96599H30.4137V1.72461Z" fill="#67B9CC"/>
<path d="M30.414 24.8975H14.4829C14.083 24.8975 13.7588 25.2217 13.7588 25.6216V28.5182C13.7588 28.9181 14.083 29.2423 14.4829 29.2423H30.414C30.8139 29.2423 31.1381 28.9181 31.1381 28.5182V25.6216C31.1381 25.2217 30.8139 24.8975 30.414 24.8975Z" fill="#9FC9D3"/>
<path d="M34.7584 22H36.2067V32.1379H34.7584V22ZM8.68945 22H10.1377V32.1379H8.68945V22Z" fill="#B49ACA"/>
<path d="M19.5519 39.38C23.1513 39.38 26.0691 38.4074 26.0691 37.2076C26.0691 36.0078 23.1513 35.0352 19.5519 35.0352C15.9525 35.0352 13.0347 36.0078 13.0347 37.2076C13.0347 38.4074 15.9525 39.38 19.5519 39.38Z" fill="#F5EFCA"/>
<path d="M4.34473 32.1387H7.24128V42.2766H4.34473V32.1387ZM31.862 32.1387H34.7585V42.2766H31.862V32.1387Z" fill="#F29C1F"/>
</g>
</g>
</g>
</g>
<defs>
<clipPath id="clip0_4007_814">
<rect width="42" height="42" fill="white"/>
</clipPath>
<clipPath id="clip1_4007_814">
<rect width="42" height="42" fill="white"/>
</clipPath>
<clipPath id="clip2_4007_814">
<rect width="42" height="42" fill="white"/>
</clipPath>
<clipPath id="clip3_4007_814">
<rect width="42" height="42" fill="white" transform="translate(0 1)"/>
</clipPath>
</defs>
</svg>
