<svg width="42" height="42" viewBox="0 0 42 42" fill="none" xmlns="http://www.w3.org/2000/svg">
<g clip-path="url(#clip0_4007_734)">
<g clip-path="url(#clip1_4007_734)">
<path d="M29.6896 5.7931V8.68966H26.7931V5.7931C26.7931 5.02489 26.4879 4.28814 25.9447 3.74493C25.4015 3.20172 24.6647 2.89655 23.8965 2.89655H18.1034C17.3352 2.89655 16.5985 3.20172 16.0552 3.74493C15.512 4.28814 15.2069 5.02489 15.2069 5.7931V8.68966H12.3103V5.7931C12.3103 4.25668 12.9207 2.78318 14.0071 1.69676C15.0935 0.610343 16.567 0 18.1034 0L23.8965 0C25.4329 0 26.9064 0.610343 27.9929 1.69676C29.0793 2.78318 29.6896 4.25668 29.6896 5.7931ZM40.5517 24.6207V39.1034C40.5517 39.8717 40.2465 40.6084 39.7033 41.1516C39.1601 41.6948 38.4234 42 37.6551 42H4.34479C3.57658 42 2.83983 41.6948 2.29662 41.1516C1.75341 40.6084 1.44824 39.8717 1.44824 39.1034V24.6207H40.5517Z" fill="#805333"/>
<path d="M2.89655 26.0688C2.12893 26.0669 1.39329 25.7611 0.850492 25.2183C0.307697 24.6755 0.0019119 23.9399 0 23.1722L0 11.586C0 10.4337 0.457757 9.32859 1.27257 8.51378C2.08738 7.69897 3.19251 7.24121 4.34483 7.24121H37.6552C38.8075 7.24121 39.9126 7.69897 40.7274 8.51378C41.5422 9.32859 42 10.4337 42 11.586V23.1722C41.9981 23.9399 41.6923 24.6755 41.1495 25.2183C40.6067 25.7611 39.8711 26.0669 39.1034 26.0688H2.89655Z" fill="#A56A43"/>
<path d="M9.41366 21.7246H7.96538C6.76559 21.7246 5.79297 22.6972 5.79297 23.897V28.2418C5.79297 29.4416 6.76559 30.4143 7.96538 30.4143H9.41366C10.6134 30.4143 11.5861 29.4416 11.5861 28.2418V23.897C11.5861 22.6972 10.6134 21.7246 9.41366 21.7246Z" fill="#F3D55B"/>
<path d="M34.0343 21.7246H32.586C31.3862 21.7246 30.4136 22.6972 30.4136 23.897V28.2418C30.4136 29.4416 31.3862 30.4143 32.586 30.4143H34.0343C35.2341 30.4143 36.2067 29.4416 36.2067 28.2418V23.897C36.2067 22.6972 35.2341 21.7246 34.0343 21.7246Z" fill="#F3D55B"/>
</g>
</g>
<defs>
<clipPath id="clip0_4007_734">
<rect width="42" height="42" fill="white"/>
</clipPath>
<clipPath id="clip1_4007_734">
<rect width="42" height="42" fill="white"/>
</clipPath>
</defs>
</svg>
