<svg width="42" height="42" viewBox="0 0 42 42" fill="none" xmlns="http://www.w3.org/2000/svg">
<g clip-path="url(#clip0_4007_296)">
<g clip-path="url(#clip1_4007_296)">
<path d="M30.0776 41.9999H11.922C11.4488 41.9999 10.9949 41.812 10.6603 41.4773C10.3257 41.1427 10.1377 40.6889 10.1377 40.2157V4.68076C10.1377 4.20754 10.3257 3.7537 10.6603 3.41909C10.9949 3.08447 11.4488 2.89648 11.922 2.89648H30.0776C30.5508 2.89648 31.0046 3.08447 31.3392 3.41909C31.6738 3.7537 31.8618 4.20754 31.8618 4.68076V40.2157C31.8618 40.6889 31.6738 41.1427 31.3392 41.4773C31.0046 41.812 30.5508 41.9999 30.0776 41.9999Z" fill="#424A60"/>
<path d="M17.3789 0H24.6203V2.89655H17.3789V0Z" fill="#D8A852"/>
<path d="M26.0686 21.0003H23.172V11.6357C23.1807 11.5937 23.1257 11.5691 23.0996 11.6024L15.9307 23.1727H19.5514L19.5528 33.2592C19.5412 33.3019 19.5963 33.3295 19.6238 33.2954L26.0686 21.0003Z" fill="#EFCE4A"/>
<path d="M30.0776 2.89648H11.922C11.4488 2.89648 10.9949 3.08447 10.6603 3.41909C10.3257 3.7537 10.1377 4.20754 10.1377 4.68076V9.41373H31.8618V4.68076C31.8618 4.20754 31.6738 3.7537 31.3392 3.41909C31.0046 3.08447 30.5508 2.89648 30.0776 2.89648Z" fill="#EA6248"/>
</g>
</g>
<defs>
<clipPath id="clip0_4007_296">
<rect width="42" height="42" fill="white"/>
</clipPath>
<clipPath id="clip1_4007_296">
<rect width="42" height="42" fill="white"/>
</clipPath>
</defs>
</svg>
