<svg width="22" height="22" viewBox="0 0 22 22" fill="none" xmlns="http://www.w3.org/2000/svg">
<path d="M17.512 5.45866C17.6058 5.36291 17.7178 5.28685 17.8414 5.23492C17.965 5.183 18.0977 5.15625 18.2318 5.15625C18.3658 5.15625 18.4986 5.183 18.6222 5.23492C18.7458 5.28685 18.8578 5.36291 18.9516 5.45866C19.3448 5.85603 19.3503 6.49816 18.9653 6.90241L10.835 16.5137C10.7427 16.615 10.6306 16.6965 10.5058 16.7531C10.3809 16.8097 10.2458 16.8402 10.1087 16.8428C9.97163 16.8453 9.83547 16.8199 9.70856 16.7681C9.58165 16.7162 9.46665 16.639 9.3706 16.5412L4.42335 11.5279C4.23255 11.3333 4.12567 11.0717 4.12567 10.7992C4.12567 10.5266 4.23255 10.265 4.42335 10.0704C4.51719 9.97466 4.62918 9.8986 4.75278 9.84667C4.87638 9.79475 5.0091 9.768 5.14316 9.768C5.27722 9.768 5.40994 9.79475 5.53354 9.84667C5.65714 9.8986 5.76913 9.97466 5.86297 10.0704L10.0595 14.3233L17.4845 5.48891C17.493 5.47828 17.5022 5.46818 17.512 5.45866Z" fill="currentColor"/>
</svg>
