<svg width="23" height="23" viewBox="0 0 23 23" fill="none" xmlns="http://www.w3.org/2000/svg">
<path d="M19.4062 6.46854H16.2545C16.2896 6.43889 16.3255 6.41014 16.3596 6.3787C16.6325 6.13628 16.8524 5.84016 17.0056 5.50888C17.1588 5.17759 17.242 4.81825 17.25 4.45334C17.2618 4.05414 17.1919 3.65675 17.0446 3.28554C16.8972 2.91434 16.6756 2.57717 16.3932 2.29473C16.1108 2.01229 15.7737 1.79053 15.4026 1.64309C15.0314 1.49564 14.634 1.42561 14.2348 1.43729C13.8698 1.44515 13.5103 1.52829 13.1788 1.68149C12.8474 1.83469 12.5511 2.05467 12.3086 2.32764C11.973 2.71657 11.7002 3.1555 11.5 3.62858C11.2998 3.1555 11.027 2.71657 10.6914 2.32764C10.4489 2.05467 10.1526 1.83469 9.82118 1.68149C9.48972 1.52829 9.13022 1.44515 8.76516 1.43729C8.36595 1.42561 7.96857 1.49564 7.59742 1.64309C7.22626 1.79053 6.88915 2.01229 6.60679 2.29473C6.32444 2.57717 6.10279 2.91434 5.95545 3.28554C5.80811 3.65675 5.7382 4.05414 5.75 4.45334C5.75799 4.81825 5.84118 5.17759 5.99438 5.50888C6.14758 5.84016 6.36749 6.13628 6.64035 6.3787C6.67449 6.40834 6.71043 6.43709 6.74547 6.46854H3.59375C3.2125 6.46854 2.84687 6.61999 2.57728 6.88957C2.3077 7.15916 2.15625 7.52479 2.15625 7.90604V10.781C2.15625 11.1623 2.3077 11.5279 2.57728 11.7975C2.84687 12.0671 3.2125 12.2185 3.59375 12.2185V17.9685C3.59375 18.3498 3.7452 18.7154 4.01478 18.985C4.28437 19.2546 4.65 19.406 5.03125 19.406H17.9688C18.35 19.406 18.7156 19.2546 18.9852 18.985C19.2548 18.7154 19.4062 18.3498 19.4062 17.9685V12.2185C19.7875 12.2185 20.1531 12.0671 20.4227 11.7975C20.6923 11.5279 20.8438 11.1623 20.8438 10.781V7.90604C20.8438 7.52479 20.6923 7.15916 20.4227 6.88957C20.1531 6.61999 19.7875 6.46854 19.4062 6.46854ZM13.3867 3.27998C13.5005 3.15431 13.6391 3.05352 13.7937 2.98395C13.9483 2.91438 14.1156 2.87752 14.2852 2.87569H14.3292C14.5279 2.87693 14.7243 2.91782 14.907 2.99596C15.0897 3.07411 15.255 3.18793 15.3932 3.33076C15.5313 3.47359 15.6396 3.64256 15.7116 3.82777C15.7836 4.01297 15.8179 4.21068 15.8125 4.40932C15.8107 4.57885 15.7738 4.74618 15.7042 4.90079C15.6347 5.0554 15.5339 5.19396 15.4082 5.30776C14.5556 6.06245 13.1405 6.32838 12.2637 6.42182C12.3715 5.47038 12.668 4.08768 13.3867 3.27998ZM7.62863 3.31233C7.9071 3.03389 8.28422 2.87665 8.67801 2.87479H8.72203C8.89156 2.87662 9.05889 2.91348 9.2135 2.98305C9.36811 3.05263 9.50667 3.15341 9.62047 3.27909C10.3743 4.13081 10.6402 5.54315 10.7336 6.41643C9.86035 6.32659 8.44801 6.05705 7.59629 5.30327C7.47062 5.18946 7.36983 5.05091 7.30025 4.8963C7.23068 4.74169 7.19382 4.57436 7.19199 4.40483C7.18642 4.20289 7.22193 4.00193 7.29637 3.81413C7.37081 3.62633 7.48263 3.45561 7.62504 3.31233H7.62863ZM3.59375 7.90604H10.7812V10.781H3.59375V7.90604ZM5.03125 12.2185H10.7812V17.9685H5.03125V12.2185ZM17.9688 17.9685H12.2188V12.2185H17.9688V17.9685ZM19.4062 10.781H12.2188V7.90604H19.4062V10.781Z" fill="currentColor"/>
</svg>
