<svg width="22" height="22" viewBox="0 0 22 22" fill="none" xmlns="http://www.w3.org/2000/svg">
<path d="M19.638 2.36041C19.0077 1.73009 18.1528 1.37598 17.2613 1.37598C16.3699 1.37598 15.515 1.73009 14.8846 2.36041L2.9957 14.2514C2.64899 14.5979 2.40977 15.0372 2.30682 15.5164L1.39039 19.7927C1.36622 19.905 1.37058 20.0215 1.40307 20.1317C1.43555 20.2419 1.49513 20.3422 1.57636 20.4234C1.65759 20.5047 1.75788 20.5642 1.86807 20.5967C1.97826 20.6292 2.09483 20.6336 2.20714 20.6094L6.48339 19.693C6.96262 19.59 7.4019 19.3508 7.74839 19.0041L18.0471 8.70535L18.2362 8.8951C18.4295 9.08849 18.5381 9.35075 18.5381 9.6242C18.5381 9.89765 18.4295 10.1599 18.2362 10.3533L16.7017 11.8885C16.5765 12.0181 16.5072 12.1918 16.5087 12.3721C16.5103 12.5523 16.5826 12.7248 16.7101 12.8522C16.8375 12.9797 17.01 13.052 17.1902 13.0536C17.3705 13.0551 17.5442 12.9858 17.6738 12.8606L19.2083 11.3261C19.4318 11.1027 19.6091 10.8374 19.73 10.5454C19.8509 10.2535 19.9132 9.94055 19.9132 9.62454C19.9132 9.30853 19.8509 8.99561 19.73 8.70365C19.6091 8.4117 19.4318 8.14642 19.2083 7.92298L19.0193 7.73323L19.638 7.11379C20.2682 6.48336 20.6222 5.62847 20.6222 4.7371C20.6222 3.84573 20.2682 2.99085 19.638 2.36041ZM15.8568 3.33254C16.2321 2.97404 16.7329 2.77665 17.2519 2.78261C17.7709 2.78857 18.267 2.9974 18.634 3.36442C19.001 3.73145 19.2099 4.22753 19.2158 4.74655C19.2218 5.26557 19.0244 5.76631 18.6659 6.14166L6.77695 18.032C6.61761 18.1912 6.41563 18.3011 6.19532 18.3482L2.95651 19.0433L3.65089 15.8052C3.69804 15.5849 3.80786 15.3829 3.96714 15.2235L15.8568 3.33254Z" fill="currentColor"/>
</svg>
